<svg width="250" height="250" fill="none" xmlns="http://www.w3.org/2000/svg"><path d="M111.56 186.29L110.8 183.99C110.47 183.07 110.11 182.16 109.81 181.23C109.35 179.81 108.89 178.37 108.49 176.93C108.29 176.19 108.17 175.43 108.08 174.68C108.02 174.22 107.85 173.8 107.72 173.39C107.24 171.96 107.19 170.48 107.02 169.01C106.94 168.24 106.79 167.48 106.72 166.71C106.65 165.97 106.68 165.23 106.59 164.49C106.44 163.3 106.45 162.1 106.49 160.91C106.52 159.77 106.59 158.61 106.84 157.5C106.94 157.07 106.8 156.85 106.46 156.58C105.45 155.75 104.46 154.88 103.5 153.99C102.89 153.44 102.31 152.84 101.73 152.26C100.398 150.94 99.1137 149.572 97.88 148.16C96.79 146.9 95.78 145.58 94.76 144.27C93.89 143.17 93.2 141.92 92.24 140.87C91.25 139.79 90.42 138.59 89.6 137.39C88.9413 136.435 88.4133 135.395 88.03 134.3C87.93 133.98 87.7 133.68 87.5 133.43C86.75 132.48 86.3 131.37 85.8 130.32C85 128.64 84.2 126.96 83.6 125.18C83.3 124.32 82.86 123.48 82.6 122.64C82.26 121.57 81.76 120.61 81.35 119.59C80.61 117.71 79.97 115.79 79.17 113.94C78.92 113.35 78.7 112.71 78.57 112.09C78.34 111.09 77.89 110.2 77.61 109.24C77.29 108.13 77.03 107 76.67 105.9C76.17 104.38 75.7 102.86 75.26 101.33C74.96 100.29 74.78 99.21 74.46 98.17C74.16 97.16 74.11 96.1 73.6 95.12C73.2 94.35 73.07 93.44 72.84 92.59C72.59 91.66 72.32 90.73 72.16 89.79C71.97 88.73 71.92 87.65 71.76 86.58C71.5 84.97 71.6 83.34 71.41 81.72C71.27 80.5 71.65 79.45 72.76 78.79C73.01 78.64 73.04 78.49 73.02 78.23C72.8514 76.4954 72.7846 74.7524 72.82 73.01C72.85 71.78 72.74 70.54 72.8 69.31C72.86 68.21 72.74 67.12 72.87 66.03C72.91 65.75 72.79 65.45 72.8 65.16C72.83 63.57 72.92 61.98 73.06 60.39C73.17 59.16 73.35 57.94 73.56 56.73C73.89 54.82 74.2 52.89 74.86 51.06C75.27 49.96 75.43 48.76 76.14 47.76C76.24 47.62 76.15 47.48 76.01 47.37C75.18 46.7 74.81 45.71 74.38 44.79C73.93 43.84 73.42 42.93 72.83 42.07C72.59 41.71 72.02 41.79 71.6 41.65C70.5 41.28 70.08 40.37 69.66 39.42C69.15 38.27 69.56 37.22 69.95 36.17C70.25 35.37 70.83 35.02 71.71 34.92L72.75 34.78C74.25 34.62 75.25 35.43 76.07 36.53C76.3 36.83 76.3 37.23 76.3 37.59C76.3 38.27 76.45 38.97 76.1 39.63C75.95 39.9 76.2 40.13 76.34 40.31C77 41.09 77.35 42.05 77.8 42.94C78.12 43.57 78.39 44.2 78.86 44.73C79.12 45.03 79.14 45.44 79.32 45.79C79.45 46.02 79.54 46.04 79.77 46.06C81.32 46.23 82.84 46.51 84.33 46.96C85.31 47.26 86.3 47.49 87.25 47.86C88.03 48.16 88.8 48.46 89.57 48.79C90.5 49.19 91.43 49.57 92.33 50.03C93.43 50.59 94.55 51.12 95.6 51.78C96.7 52.46 97.86 53.03 99 53.65C100.7 54.58 102.44 55.43 104.04 56.53C104.77 57.03 105.49 57.55 106.19 58.08C106.47 58.29 106.68 58.3 106.97 58.1C107.44 57.78 107.9 57.77 108.49 57.98C110.45 58.68 111.85 60.14 113.43 61.36C115.17 62.71 116.83 64.16 118.63 65.44C119.59 66.12 120.6 66.79 121.43 67.62C122.23 68.42 123.1 69.12 123.93 69.85C125 70.78 126 71.78 127.05 72.73C128.05 73.66 129 74.64 129.95 75.63C131 76.73 132.12 77.76 133.11 78.91C133.74 79.66 134.43 80.35 135.05 81.11C135.85 82.11 136.53 83.21 137.34 84.19L138.64 85.79C139.33 86.64 140 87.52 140.54 88.46C141.172 89.5373 141.832 90.5977 142.52 91.64C143.13 92.59 143.58 93.64 144.13 94.63C144.55 95.39 145.06 96.1 145.41 96.88C145.86 97.86 146.39 98.82 146.66 99.88C146.74 100.21 147.06 100.28 147.17 100.56C147.76 101.92 148.49 103.2 149 104.6C149.47 105.84 149.95 107.12 150.65 108.27C151.17 109.1 151.34 110.07 151.76 110.94C152.36 112.17 152.83 113.46 153.36 114.72C153.85 115.84 154.24 116.99 154.58 118.16C154.83 119.02 155.14 119.87 155.28 120.78C155.38 121.36 155.69 121.92 155.9 122.5C156.1 123.1 156.34 123.7 156.4 124.33C156.43 124.69 156.56 124.8 156.91 124.76C159.06 124.57 161.18 124.81 163.26 125.33C164.27 125.59 165.28 125.87 166.26 126.23C167.76 126.79 169.36 127 170.83 127.67C172.29 128.35 173.85 128.87 175.16 129.83C176.42 130.75 177.76 131.56 178.96 132.56C179.63 133.13 180.19 133.85 180.86 134.43C181.86 135.28 182.79 136.22 183.63 137.21C184.45 138.18 185.3 139.12 186.03 140.16C186.555 140.885 187.042 141.636 187.49 142.41C187.93 143.19 188.4 143.97 188.86 144.75C189.28 145.47 189.57 146.27 190.06 146.95C190.33 147.35 190.5 147.8 190.63 148.23C191.06 149.65 191.83 150.94 192.23 152.37C192.53 153.43 192.87 154.49 193.13 155.56C193.59 157.55 194.24 159.49 194.54 161.52C194.75 162.97 195.1 164.4 195.15 165.88C195.2 167.38 195.39 168.88 195.43 170.39C195.47 171.69 195.32 172.97 195.11 174.27C195.001 175.007 194.691 175.7 194.215 176.273C193.739 176.846 193.114 177.277 192.41 177.52C191.3 178.04 190.056 178.201 188.85 177.98C187.21 177.61 186.08 176.62 184.99 175.48C184.32 174.78 183.56 174.15 183.04 173.33C182.625 172.638 182.139 171.992 181.59 171.4C180.99 170.78 180.58 170.06 180.02 169.43C179.1 168.39 178.22 167.33 177.36 166.23C176.72 165.43 176 164.71 175.26 164C174.44 163.2 173.66 162.33 172.75 161.62C172.15 161.16 171.65 160.59 171.03 160.16C170.26 159.64 169.57 159.03 168.87 158.41C168.57 158.15 168.19 158.05 167.87 157.84C165.88 156.51 163.88 155.18 161.41 154.96C160.53 154.87 159.63 154.96 158.74 155.01C158.43 155.03 158.28 155.34 158.08 155.54C157.81 155.83 158.15 155.99 158.21 156.21C158.4 156.88 158.99 157.29 159.2 157.96C159.37 158.49 159.84 158.92 160.15 159.41C161.06 160.87 162.22 162.15 163.22 163.55C164.32 165.05 165.512 166.479 166.79 167.83C167.06 168.11 167.29 168.43 167.53 168.73C167.81 169.05 168.03 169.4 168.59 169.33C168.93 169.28 169.35 170.01 169.32 170.52C169.26 171.45 168.96 172.26 168.1 172.77C167.72 172.99 167.5 173.4 167.1 173.65C166.82 173.83 167.07 174.03 167.26 174.13C168.412 174.718 169.459 175.492 170.36 176.42C170.95 176.99 171.6 177.49 172.17 178.08C172.65 178.57 173.15 179.03 173.54 179.58C174.18 180.5 175.06 181.21 175.64 182.2C175.99 182.8 176.56 183.3 176.86 183.95C177.38 185.09 178.05 186.15 178.6 187.27C179.3 188.69 179.76 190.18 180.18 191.67C180.58 192.863 180.693 194.135 180.51 195.38C180.32 196.34 179.81 196.51 178.81 196.55C177.86 196.59 176.94 196.45 176.09 196.08C175.35 195.78 174.63 195.4 173.97 194.94C173.37 194.52 172.73 194.14 171.89 193.8C172.55 195.04 172.59 196.3 173 197.48C173.24 198.15 173.4 198.88 173.5 199.61C173.64 200.45 173.98 201.26 174.2 202.1C174.58 203.58 175.11 205.02 175.43 206.52C175.62 207.4 175.81 208.27 175.97 209.16C176.2 210.51 176.29 211.88 176.32 213.26C176.34 213.96 176.47 214.66 176.81 215.33C177.36 216.43 177.37 217.57 176.41 218.13C175.59 218.6 174.72 218.47 173.9 218.14C173.06 217.8 172.2 217.47 171.43 216.99C169.851 215.992 168.362 214.858 166.98 213.6C165.778 212.526 164.71 211.31 163.8 209.98C163.37 209.32 162.78 208.75 162.46 208.02C161.88 206.7 160.81 205.76 159.94 204.67C159.34 203.92 158.78 203.12 158.04 202.49C157.98 202.44 157.95 202.36 157.89 202.31C157.16 201.66 157.03 201.73 156.69 202.63C155.99 204.51 155.14 206.31 153.59 207.68C152.66 208.49 150.92 208.39 150.06 207.54C149.48 206.99 148.88 206.44 148.4 205.78C147.7 204.81 147.15 203.78 146.54 202.76C145.466 200.899 144.648 198.9 144.11 196.82C143.77 195.58 143.23 194.36 143.17 193.07C143.1 191.54 142.71 190.07 142.53 188.49C141.93 188.92 141.26 188.96 140.63 189.15C140.306 189.268 139.962 189.319 139.617 189.3C139.273 189.281 138.936 189.192 138.628 189.039C138.319 188.885 138.045 188.671 137.822 188.408C137.598 188.145 137.431 187.84 137.33 187.51C136.71 185.82 136.35 184.06 135.83 182.34L135.08 179.79C134.76 178.71 134.28 177.69 133.95 176.61C133.45 175.01 133.18 173.34 132.69 171.71C132.27 172.05 132.42 172.54 132.4 172.91C132.35 173.87 132.09 174.78 131.93 175.71C131.73 176.88 132.03 177.99 132.1 179.13C132.14 179.61 132.33 180.07 132.36 180.55C132.39 181.3 132.76 181.95 132.94 182.65C133.21 183.7 133.73 184.7 134.13 185.72C134.65 187.03 135.24 188.31 135.73 189.63C136.43 191.58 137.26 193.48 138.17 195.35C138.74 196.52 139.04 197.83 139.6 199.01C140.25 200.41 140.26 201.91 140.4 203.38C140.452 203.962 140.386 204.549 140.208 205.105C140.029 205.662 139.741 206.177 139.36 206.62C138.606 207.64 137.515 208.359 136.28 208.65C135 208.9 133.74 209.28 132.41 208.98C132.145 208.932 131.891 208.837 131.66 208.7C131.216 208.394 130.717 208.177 130.19 208.06C129.71 207.917 129.266 207.672 128.89 207.34C128.09 206.74 127.37 206.07 126.62 205.44C125.53 204.51 124.49 203.54 123.44 202.57C122.42 201.62 121.32 200.72 120.54 199.52C119.999 198.692 119.504 197.834 119.06 196.95C118.66 196.15 117.89 195.62 117.4 194.85C116.9 194.07 116.23 193.39 115.75 192.59C115.023 191.396 114.228 190.244 113.37 189.14C112.97 188.61 112.69 187.99 112.35 187.42C112.25 187.26 112.21 187.04 111.98 187L111.57 186.3V186.29H111.56ZM157.59 157.14C157.362 156.956 157.215 156.691 157.18 156.4C157.11 156.02 156.94 155.96 156.64 156.2C155.31 157.24 153.74 157.9 152.34 158.82C151.61 158.98 151.06 159.49 150.42 159.82C148.94 160.59 147.52 161.47 146.08 162.3L145.62 162.56C145.14 162.79 145.01 163.12 145.22 163.62C145.33 163.87 145.52 164.09 145.52 164.38C145.57 164.74 145.64 165.1 145.85 165.41C146.17 166.84 146.73 168.2 147.23 169.55C147.76 170.99 148.41 172.42 148.93 173.88C149.83 176.4 150.98 178.8 152.03 181.26C152.15 181.56 152.27 181.56 152.52 181.36C153.68 180.43 155.12 179.91 156.32 179.03C156.8 178.67 157.38 178.5 157.88 178.16C158.64 177.65 159.41 177.15 160.22 176.71C160.88 176.35 161.62 176.11 162.2 175.67C162.95 175.11 163.75 174.62 164.53 174.17C165.87 173.37 166.86 172.27 167.94 171.23C168.14 171.04 168.13 170.89 167.93 170.69C167.39 170.16 166.88 169.59 166.36 169.04C165.64 168.28 165.08 167.36 164.36 166.64C163.26 165.56 162.48 164.26 161.5 163.1C160.22 161.6 159.21 159.85 158.09 158.21L157.59 157.14ZM138.24 186.48C138.28 186.73 138.31 186.98 138.37 187.23C138.49 187.65 138.77 188 139.19 188.03C139.79 188.09 140.39 188.05 140.98 187.9C141.68 187.71 142.2 187.24 142.77 186.84C143.59 186.39 143.6 186.38 143.13 185.59C142.6 184.7 142.09 183.81 141.51 182.96C141.15 182.41 140.9 181.78 140.51 181.26C139.65 180.1 138.98 178.83 138.17 177.65C137.06 176.01 136.1 174.27 135.07 172.56C134.77 172.06 134.48 171.56 134.23 171.05C133.95 170.49 133.58 170.84 133.31 170.97C132.96 171.15 133.36 171.35 133.41 171.54C133.43 171.67 133.51 171.78 133.56 171.91L135.01 176.61C135.25 177.37 135.41 178.17 135.76 178.87C136.48 180.33 136.79 181.92 137.26 183.45C137.56 184.47 137.73 185.53 138.24 186.48ZM185.56 174.21C186.3 175.09 187.21 175.76 188.14 176.41C188.18 176.45 188.28 176.41 188.36 176.41C189.12 176.77 190.96 176.9 191.31 176.61C191.28 176.58 191.26 176.54 191.22 176.54C190.023 176.286 188.917 175.712 188.02 174.88C186.986 173.992 186.035 173.011 185.18 171.95C184.28 170.84 183.46 169.66 182.53 168.58C181.63 167.53 180.79 166.44 179.93 165.35C179.12 164.31 178.13 163.4 177.22 162.44C176.55 161.74 175.92 161 175.19 160.36C174.08 159.38 172.95 158.41 171.93 157.33C171.1 156.45 170.1 155.82 169.12 155.15C168.24 154.55 167.25 154.13 166.25 153.77C164.91 153.29 163.58 152.73 162.09 152.97C161.85 153.01 161.58 153 161.34 152.93C160.82 152.78 160.34 152.91 159.88 153.12C159.32 153.09 159.2 153.48 159.08 153.94L160.07 153.69C161.17 153.71 162.29 153.72 163.35 154.04C165.09 154.56 166.6 155.6 168.15 156.47C169.9 157.45 171.33 158.91 172.95 160.1C173.8 160.72 174.54 161.5 175.29 162.25C175.55 162.51 175.93 162.61 176.13 162.95C176.69 163.91 177.56 164.62 178.28 165.45C179.13 166.43 179.94 167.47 180.82 168.43C182 169.71 182.79 171.3 184.06 172.5C184.56 173.02 184.8 173.75 185.46 174.13L185.56 174.21ZM148.22 191.84C148.6 192.7 149.22 193.4 149.73 194.17C150.18 194.87 150.65 195.55 151.17 196.18C151.51 196.58 151.85 196.98 152.15 197.41C152.61 198.11 153.22 198.53 154.11 198.36C154.43 198.3 154.77 198.3 155.09 198.23C155.93 198.07 156.37 197.57 156.46 196.73C156.54 195.89 156.36 195.15 155.84 194.49C155.66 194.06 155.19 193.72 155.44 193.15C155.46 193.1 155.32 192.97 155.24 192.89C154.13 191.65 153.2 190.27 152.26 188.9C151.03 187.1 149.72 185.34 148.52 183.5C148.26 183.11 148.14 182.62 147.83 182.31C147.07 181.56 146.61 180.61 146.01 179.75C145.45 178.97 144.98 178.12 144.44 177.35C143.92 176.61 143.6 175.79 143.08 175.07C142.12 173.72 141.44 172.18 140.63 170.73C140.11 169.79 139.53 168.89 139.01 167.95C138.11 166.32 137.36 164.61 136.37 163.03C135.82 162.15 135.49 161.13 135.07 160.18C134.538 158.905 133.937 157.66 133.27 156.45C132.26 154.68 131.59 152.72 130.93 150.78C130.35 149.09 129.73 147.41 129.43 145.63C129.21 144.33 128.87 143.06 128.81 141.68C127.83 142.14 126.84 142.46 125.87 142.82C125.22 143.06 124.77 143.64 124.68 144.48C124.58 145.54 124.98 146.5 125.1 147.51C125.15 147.87 125.06 148.27 125.3 148.63C125.7 149.23 125.93 149.93 126.24 150.57C126.74 151.63 127.28 152.68 127.72 153.77C127.99 154.45 128.39 155.05 128.65 155.73C128.99 156.63 129.25 157.57 129.65 158.45C130.41 160.16 130.92 161.97 131.75 163.66C132.52 165.24 133.14 166.9 133.95 168.46C134.79 170.09 135.77 171.66 136.69 173.26C136.78 173.4 136.81 173.6 137.02 173.64C137.24 174.38 137.79 174.92 138.17 175.57C138.3 175.8 138.27 176.13 138.57 176.25C139.21 177.55 140.09 178.71 140.83 179.95C141.17 180.53 141.6 181.06 141.91 181.66C142.11 182.04 142.31 182.4 142.55 182.75C142.87 183.21 143.17 183.69 143.48 184.15C143.88 184.75 144.1 185.45 144.51 186.04C145.42 187.34 146.11 188.76 147.04 190.03C147.47 190.61 147.72 191.31 148.22 191.84ZM158.25 197.22C158.02 197.56 157.62 197.67 157.38 198.03C156.859 198.822 156.054 199.384 155.13 199.6C154.48 199.76 153.83 199.44 153.19 199.66C152.613 199.496 152.082 199.197 151.643 198.789C151.203 198.38 150.866 197.874 150.66 197.31C150.592 197.087 150.487 196.878 150.35 196.69C149.6 195.79 149.05 194.76 148.42 193.79C147.98 193.12 147.55 192.44 147.02 191.82L144.9 188.42C144.7 188.1 144.54 187.49 144.14 187.61C143.66 187.74 143.72 188.37 143.7 188.83C143.7 188.93 143.7 189.03 143.72 189.13C143.97 190.06 144.14 190.98 144.19 191.96C144.29 193.42 144.67 194.86 145.12 196.26C145.831 198.688 146.839 201.019 148.12 203.2C148.92 204.47 149.82 205.63 150.96 206.6C151.56 207.13 152.19 207.1 152.84 206.7C153.39 206.36 153.71 205.86 154 205.35C154.64 204.21 155.32 203.08 155.6 201.78C155.625 201.657 155.675 201.54 155.748 201.436C155.82 201.333 155.913 201.246 156.02 201.18C156.355 200.984 156.737 200.881 157.125 200.881C157.513 200.881 157.895 200.984 158.23 201.18C158.89 201.58 159.34 202.18 159.89 202.69C161.31 204.02 162.22 205.72 163.46 207.17C164.13 207.95 164.47 208.93 165.17 209.67C166.07 210.63 166.75 211.77 167.77 212.63C169.01 213.67 170.29 214.63 171.62 215.53C172.71 216.25 173.8 216.96 175.16 217.07C175.4 217.09 175.63 217.22 175.78 216.97C175.92 216.72 175.86 216.49 175.73 216.24C175.5 215.77 175.2 215.31 175.11 214.81C174.87 213.45 175.02 212.06 174.91 210.68C174.82 209.78 174.62 208.91 174.47 208.03C174.23 206.73 173.78 205.46 173.47 204.16C173.228 203.128 172.941 202.107 172.61 201.1C172.05 199.42 171.71 197.7 171.26 196.01C170.9 194.67 170.8 193.26 170.04 192.04C169.94 191.9 169.96 191.75 170 191.59C170.14 191.05 170.78 190.99 171.31 191.49C171.74 191.89 172.21 192.21 172.65 192.59C173.45 193.28 174.5 193.49 175.25 194.25C175.46 194.46 175.79 194.67 176.1 194.78C177 195.12 177.96 195.29 178.93 195.33C179.15 195.34 179.25 195.3 179.28 195.09C179.33 194.67 179.47 194.25 179.43 193.83C179.33 192.68 179.03 191.53 178.57 190.5C177.95 189.12 177.49 187.7 176.81 186.33C176.21 185.1 175.27 184.13 174.66 182.93C174.15 181.93 173.43 181.06 172.59 180.3C171.85 179.64 171.34 178.76 170.56 178.15C169.66 177.45 168.84 176.63 167.99 175.85C167.09 175.05 166.02 174.92 164.89 175.21C164.39 175.33 164.09 175.76 163.67 176.01C162.74 176.53 161.82 177.09 160.89 177.63C158.07 179.13 155.41 180.93 152.45 182.23C152.82 182.88 153.14 183.58 153.5 184.26C154.64 186.42 155.8 188.56 157.12 190.62C157.99 191.96 158.75 193.37 158.87 195.02C158.93 195.83 158.83 196.6 158.25 197.22ZM127.18 171.56C126.96 171.22 126.54 171.22 126.23 171.02C125.171 170.347 124.104 169.687 123.03 169.04C121.4 168.06 119.91 166.88 118.37 165.78C117.31 165.03 116.31 164.21 115.26 163.45C114.04 162.55 112.77 161.73 111.62 160.77C110.44 159.79 109.15 158.93 107.98 157.77C107.92 158.64 107.86 159.42 107.77 160.2C107.68 160.93 107.72 161.67 107.73 162.4C107.76 163.71 107.88 165.01 108 166.31C108.05 166.82 108.28 167.29 108.28 167.78C108.27 169.02 108.4 170.25 108.58 171.47C108.68 172.23 108.91 172.98 109.13 173.72C109.45 174.8 109.47 175.95 109.84 176.99C110.32 178.34 110.74 179.7 111.14 181.07C111.56 182.5 112.13 183.87 112.63 185.27C112.95 185.86 113.22 186.47 113.73 186.94C114.26 188.04 114.99 189.02 115.65 190.04C116.11 190.74 116.43 191.54 117.09 192.12C117.29 192.28 117.44 192.48 117.57 192.69C118.51 194.24 119.57 195.69 120.67 197.13C120.83 197.34 121.11 197.57 121.1 197.79C121.09 198.22 121.33 198.44 121.55 198.74C121.91 199.21 122.39 199.54 122.75 200.01C123.41 200.9 124.31 201.54 125.07 202.33C125.704 202.977 126.382 203.578 127.1 204.13C128.49 205.21 129.7 206.48 131.34 207.26C132.54 207.82 133.66 208.04 134.92 207.59C135.27 207.47 135.36 207.35 135.2 207.01C135.144 206.892 135.133 206.757 135.17 206.632C135.207 206.506 135.289 206.399 135.4 206.33C135.98 205.96 136.04 205.33 135.98 204.81C135.8 203.48 135.66 202.13 135.04 200.88C134.371 199.531 133.741 198.164 133.15 196.78C132.4 195 131.72 193.2 131 191.41C130.3 189.69 129.8 187.91 129.3 186.13C128.84 184.49 128.5 182.83 128.39 181.13C128.3 179.95 128.14 178.77 128.25 177.6C128.41 175.96 128.67 174.34 128.91 172.72C128.95 172.41 128.85 172.28 128.55 172.27L127.18 171.56ZM86.68 129.34C87.14 130.39 87.6 131.44 88.18 132.44C88.62 133.18 88.98 133.97 89.4 134.74C89.73 135.33 89.88 136.01 90.32 136.55C90.86 137.21 91.28 137.96 91.88 138.58C92.51 139.24 92.9 140.09 93.48 140.78C94.51 142.01 95.4 143.35 96.33 144.64L98.43 147.09C99.37 148.21 100.23 149.42 101.33 150.39C101.75 150.74 102.1 151.15 102.49 151.52C103.17 152.17 103.75 152.93 104.54 153.46C106.704 155.479 108.974 157.382 111.34 159.16C111.44 159.26 111.54 159.4 111.67 159.49L115.23 162.1C117.03 163.42 118.87 164.69 120.63 166.07C122.18 167.3 123.88 168.31 125.54 169.38C126.66 170.1 127.91 170.56 128.99 171.33C129.58 171.75 129.87 171.72 130.43 171.26C131.048 170.756 131.785 170.418 132.57 170.28C133.29 170.14 133.5 169.88 133.14 169.22C133.14 169.16 133.18 169.09 133.16 169.05C132.6 168.25 132.19 167.36 131.81 166.46C131.49 165.78 131.15 165.1 130.86 164.41C130.4 163.29 129.99 162.15 129.55 161.03C129.29 160.38 129 159.74 128.75 159.1C128.2 157.75 127.85 156.33 127.13 155.05C126.43 153.8 125.86 152.49 125.28 151.18C124.83 150.16 124.31 149.18 124.04 148.08C123.94 147.63 123.98 147.14 123.69 146.74C123.64 146.11 123.39 145.49 123.53 144.85C123.66 144.21 123.55 143.47 123.98 142.95C125.09 141.62 126.67 141.11 128.29 140.75C128.89 140.61 129.53 140.73 130.13 140.72C130.81 140.7 131.05 140.99 131.35 141.45C131.68 141.95 131.91 142.51 132.25 143C132.72 143.67 133.2 144.37 133.61 145.06C134.21 146.06 134.84 147.06 135.43 148.07C135.6 148.35 135.88 148.57 136.01 148.87C136.38 149.73 137.01 150.43 137.48 151.21C138.12 152.27 138.91 153.24 139.58 154.29C140.04 155.03 140.61 155.69 141.17 156.36C141.94 157.29 142.54 158.32 143.2 159.32C143.6 159.92 143.87 160.6 144.42 161.09C144.74 161.38 145.12 161.61 145.12 162.14C145.5 161.97 145.62 161.62 145.9 161.44C147.47 160.47 148.98 159.41 150.6 158.54C152.14 157.71 153.65 156.84 155.16 155.96C155.86 155.56 156.56 155.14 157.28 154.75C157.55 154.6 157.75 154.42 157.73 154.08C157.85 153.88 158.01 153.68 158.08 153.48C158.54 152 158.96 150.51 159.41 149.03C159.78 147.81 160.06 146.6 160.03 145.32C160.01 144.54 160.25 143.71 160.04 142.99C159.67 141.69 159.71 140.32 159.28 139.01C158.85 137.7 158.65 136.3 158.35 134.94C157.87 132.78 157.33 130.64 156.75 128.51C156.262 126.594 155.674 124.705 154.99 122.85C154.77 122.11 154.65 121.35 154.39 120.62C154.01 119.61 153.73 118.55 153.41 117.52C152.637 115.147 151.716 112.826 150.65 110.57C150.05 109.25 149.4 107.93 148.81 106.6C147.75 104.27 146.71 101.94 145.51 99.68C144.7 98.13 143.71 96.68 143.03 95.08C142.531 93.8975 141.949 92.7514 141.29 91.65C140.79 90.81 140.49 89.89 139.89 89.1C138.6 87.46 137.47 85.7 136.17 84.07C134.89 82.47 133.67 80.83 132.22 79.38C130.57 77.74 129 76.01 127.39 74.33C126.69 73.6 126.03 72.86 125.24 72.22C124.54 71.65 123.9 71 123.23 70.39C123.09 70.03 122.7 69.96 122.43 69.75C121.93 69.37 121.63 68.75 120.97 68.59C120.63 68.41 120.5 68.05 120.17 67.84C119.39 67.34 118.62 66.79 117.97 66.14C117.515 65.6912 117.008 65.2984 116.46 64.97C115.28 64.27 114.26 63.36 113.19 62.52C111.65 61.31 110.26 59.9 108.51 58.94C107.88 58.6 107.55 58.62 107.12 59.14C106.96 59.34 106.78 59.52 106.58 59.67C105.84 60.24 105.13 60.84 104.34 61.34C103.66 61.76 103.08 62.32 102.41 62.74C101.354 63.3916 100.314 64.0685 99.29 64.77C98.07 65.62 96.81 66.43 95.62 67.34C94.86 67.91 94.06 68.44 93.25 68.94C92.24 69.6 91.29 70.34 90.19 70.87C88.99 71.44 87.75 71.97 86.57 72.59C85.21 73.31 83.9 74.11 82.57 74.89C82.31 75.04 82.03 75.19 81.84 75.44C81.44 75.54 81.13 75.78 80.83 76.04L80.03 76.5C79.04 76.99 78.16 77.67 77.12 78.04C76.12 78.41 75.22 79.04 74.14 79.22C73.61 79.38 73.12 79.6 72.84 80.14C72.35 81.04 72.48 81.95 72.72 82.88C72.68 83.3 72.57 83.71 72.65 84.14C72.67 84.87 72.69 85.63 72.81 86.33C73.11 88.07 73.25 89.85 73.76 91.56C74.08 92.63 74.34 93.72 74.66 94.79C74.79 95.22 75.13 95.59 75.18 96.01C75.34 97.4 75.84 98.69 76.13 100.03L76.89 103.13C76.92 103.26 77.02 103.31 77.1 103.39C77.1 103.51 77.05 103.64 77.1 103.74C77.66 104.91 77.86 106.21 78.26 107.44C78.76 109 79.2 110.58 79.79 112.12C80.27 113.37 80.73 114.64 81.13 115.92C81.68 117.67 82.59 119.28 83.07 121.09C83.32 122.06 83.92 122.96 84.27 123.94C84.37 124.26 84.39 124.61 84.57 124.88C85.04 125.61 85.19 126.48 85.61 127.24C85.69 127.44 85.75 127.64 85.86 127.81C86.16 128.31 86.2 128.94 86.67 129.34H86.68ZM156.91 125.59C157.07 126.19 157.24 126.77 157.37 127.36C157.65 128.54 158.07 129.68 158.34 130.87C158.59 131.97 158.83 133.08 159.12 134.17C159.38 135.15 159.48 136.17 159.79 137.12C160.21 138.39 160.37 139.72 160.6 141.02C160.86 142.52 161.17 144.02 161.07 145.56C160.98 146.82 161.04 148.09 160.66 149.32L159.81 151.89C161.65 151.75 163.41 151.59 165.14 152.13C165.85 152.35 166.57 152.56 167.26 152.84C168.26 153.25 169.17 153.8 170.09 154.38C171.09 155.01 171.99 155.75 172.9 156.48C174.15 157.5 175.24 158.72 176.44 159.81C178 161.25 179.46 162.81 180.81 164.46C181.44 165.24 182.15 165.96 182.76 166.76C183.61 167.86 184.49 168.94 185.36 170.02C186.16 171.02 186.88 172.09 187.79 172.98C188.866 174.014 190.147 174.811 191.55 175.32C192.13 175.54 192.61 175.51 192.95 174.91C193.04 174.75 193.18 174.55 193.34 174.49C193.99 174.25 194.15 173.75 194.17 173.14C194.2 172.24 194.51 171.34 194.34 170.45C194.09 169.15 194.16 167.84 194.05 166.53C193.931 164.848 193.687 163.176 193.32 161.53C192.96 159.97 192.62 158.41 192.22 156.85C191.886 155.56 191.516 154.279 191.11 153.01C190.74 151.84 190.27 150.7 189.89 149.52C189.389 148.112 188.703 146.777 187.85 145.55C187.37 144.81 186.95 144.03 186.49 143.29C185.61 141.87 184.69 140.49 183.62 139.21C183.42 138.96 183.3 138.63 183.03 138.43C182.24 137.83 181.68 137 180.97 136.32C179.89 135.28 178.88 134.15 177.68 133.24C176.54 132.38 175.44 131.46 174.2 130.74C172.78 129.91 171.36 129.08 169.79 128.59C168.45 128.19 167.13 127.72 165.79 127.33C164.68 127 163.59 126.63 162.46 126.36C160.63 125.94 158.76 125.91 156.9 125.59H156.91ZM129.68 141.76C130.12 143.99 130.55 146.18 131.25 148.31C131.56 149.25 131.71 150.25 132.1 151.14C132.82 152.77 133.32 154.51 134.24 156.04C135.44 158.01 136.07 160.24 137.2 162.24C137.57 162.89 137.94 163.57 138.25 164.26C138.95 165.78 139.78 167.22 140.56 168.69L142.16 171.69C142.69 172.66 143.38 173.55 143.85 174.57C144.08 175.06 144.48 175.52 144.7 175.98C145.12 176.88 145.71 177.64 146.24 178.44C146.89 179.43 147.53 180.43 148.16 181.42C148.58 182.08 149.06 182.72 149.47 183.37C150.46 184.9 151.6 186.32 152.67 187.79C153.62 189.11 154.62 190.39 155.47 191.78C156.01 192.68 156.65 193.45 157.42 194.22C157.05 193.29 156.66 192.44 156.12 191.64C155.28 190.36 154.67 188.92 153.7 187.71C153.31 187.22 153.31 186.59 153.11 186.03C152.77 185.09 152.28 184.19 151.82 183.3C151.178 182.039 150.574 180.758 150.01 179.46C149.53 178.36 149.05 177.26 148.59 176.15C147.87 174.39 147.24 172.59 146.55 170.82C145.57 168.27 144.46 165.75 144.09 162.99C144.01 162.34 144 161.58 143.44 161.1C142.81 160.56 142.53 159.78 142 159.17C141.23 158.27 140.55 157.31 139.85 156.36C139.15 155.41 138.41 154.49 137.77 153.5C137.49 153.06 137.27 152.58 136.91 152.19C136.04 151.26 135.56 150.07 134.72 149.11C134.07 148.36 133.7 147.38 133.18 146.51C132.7 145.72 132.18 144.96 131.69 144.17L130.61 142.31C130.41 141.96 130.15 141.75 129.68 141.76ZM79.94 75.3C80.24 75.1 80.6 74.98 80.87 74.71C81.11 74.48 81.19 74.26 80.99 73.95C80.3405 72.9297 79.8987 71.7913 79.69 70.6C79.59 70.05 79.46 69.5 79.3 68.96C78.94 67.69 78.5 66.46 78.11 65.19C77.96 64.68 77.91 64.14 77.75 63.61C77.4143 62.579 77.1339 61.5308 76.91 60.47C76.71 59.45 76.61 58.4 76.51 57.37C76.36 55.91 76.51 54.46 76.67 53.02C76.84 51.58 77.11 50.15 77.28 48.72C77.3 48.54 77.42 48.24 77.13 48.25C76.93 48.25 76.59 48.25 76.53 48.59L76.45 48.88C76.09 50.01 75.76 51.16 75.42 52.3C75.02 53.69 74.83 55.1 74.57 56.51C74.38 57.53 74.13 58.54 74.08 59.59C74.05 60.47 73.88 61.35 73.8 62.23C73.74 62.96 73.83 63.71 73.78 64.43C73.68 66.03 73.75 67.6 73.75 69.18C73.75 70.65 73.76 72.13 73.81 73.6C73.85 75.04 73.65 76.49 73.91 77.93C73.96 78.18 73.98 78.27 74.27 78.19C75.07 77.96 75.8 77.53 76.55 77.19C77.7416 76.6813 78.8776 76.0513 79.94 75.31V75.3ZM131.38 171.79C130.87 171.92 130.51 172.23 130.11 172.45C129.98 172.53 129.94 172.65 129.94 172.79C129.87 174.92 129.41 177.01 129.51 179.15C129.59 180.82 129.77 182.46 130.11 184.08C130.41 185.54 130.73 187.01 131.29 188.42C131.72 189.47 132.02 190.58 132.44 191.64C133.624 194.661 134.891 197.649 136.24 200.6C136.68 201.57 136.98 202.57 137.1 203.63C137.241 204.819 137.152 206.024 136.84 207.18C138.37 206.33 139.15 205.13 139.15 203.46C139.15 202.31 138.87 201.21 138.55 200.11C138.28 199.14 137.95 198.19 137.52 197.28C137.04 196.25 136.69 195.16 136.09 194.17C135.886 193.841 135.721 193.488 135.6 193.12C134.78 190.49 133.58 188 132.64 185.42C132 183.67 131.26 181.96 130.9 180.12C130.82 179.72 130.87 179.32 130.78 178.91C130.546 177.928 130.491 176.911 130.62 175.91C130.81 174.55 131.22 173.22 131.38 171.79ZM75.36 37.47C74.888 36.6073 74.0991 35.9618 73.16 35.67C71.86 35.19 70.73 36.32 70.65 37.4C70.58 38.24 70.55 39.02 71.08 39.78C71.45 40.32 72.63 41.03 73.26 40.88C73.32 40.85 73.36 40.77 73.42 40.72C73.88 40.29 74.27 39.74 75 39.76C75.13 39.76 75.19 39.66 75.24 39.54C75.59 38.73 75.63 37.94 75.36 37.47ZM76.41 46.32C76.92 47.19 76.93 47.18 77.57 46.6C77.75 46.43 77.89 46.2 78.14 46.11C78.32 46.05 78.37 45.92 78.24 45.75C77.54 44.89 77.04 43.91 76.53 42.93C76.36 42.6 76.4 42.23 76.23 41.93C76 41.5 75.83 40.99 75.5 40.66C75.23 40.4 74.87 40.83 74.55 40.92C73.65 41.16 73.59 41.48 74.17 42.21C74.27 42.33 74.33 42.47 74.41 42.61C75.13 43.87 75.94 45.09 76.41 46.31V46.32Z" fill="#5272C4"/><path d="M155.16 155.96C153.65 156.83 152.14 157.71 150.6 158.54C148.98 159.41 147.47 160.47 145.9 161.44C145.62 161.62 145.5 161.97 145.12 162.14C145.12 161.61 144.74 161.38 144.42 161.09C143.87 160.6 143.6 159.91 143.2 159.32C142.54 158.32 141.94 157.29 141.17 156.36C140.61 155.7 140.04 155.02 139.57 154.29C138.91 153.24 138.12 152.27 137.47 151.21C137 150.43 136.37 149.73 136.01 148.87C135.88 148.57 135.6 148.35 135.43 148.07C134.84 147.06 134.21 146.07 133.61 145.06C133.21 144.36 132.71 143.67 132.25 143C131.91 142.5 131.68 141.95 131.35 141.45C131.05 140.99 130.81 140.7 130.13 140.72C129.53 140.72 128.89 140.61 128.29 140.74C126.67 141.11 125.09 141.62 123.98 142.95C123.55 143.47 123.66 144.21 123.53 144.85C123.4 145.49 123.63 146.11 123.69 146.74C123.44 146.44 123.41 145.92 122.94 145.82C122.64 145.76 122.5 145.52 122.33 145.32C121.55 144.46 120.78 143.57 119.97 142.73C119.558 142.301 119.158 141.861 118.77 141.41C118.04 140.56 117.37 139.66 116.69 138.78C116.28 138.26 115.75 137.82 115.39 137.26C114.04 135.22 112.34 133.45 110.93 131.44C110.33 130.58 109.66 129.75 109.05 128.89C108.53 128.15 108.03 127.39 107.53 126.63C106.89 125.66 106.22 124.72 105.63 123.72C104.75 122.19 103.96 120.62 103.1 119.08C102.48 117.98 101.75 116.94 101.22 115.79C101.71 115.42 102.1 114.95 102.79 114.85C103.47 114.75 104.13 114.47 104.8 114.31C105 114.26 105.2 114.18 105.43 114.21C106.53 114.29 107.6 114.61 108.66 114.91C109.853 115.256 110.882 116.019 111.56 117.06C112.04 117.76 112.39 117.88 113.11 117.46L114.02 116.93C114.57 116.61 114.65 116.32 114.35 115.78C113.838 114.855 113.12 114.061 112.25 113.46C112.02 113.3 111.75 113.22 111.5 113.04C110.964 112.605 110.376 112.239 109.75 111.95C108.71 111.5 107.56 111.39 106.45 111.27C105.9 111.21 105.33 111.07 104.73 111.15C103.88 111.25 103.04 111.44 102.25 111.72C101.77 111.9 101.14 111.8 100.82 112.26C100.55 112.66 100.16 112.85 99.79 113.08C98.24 110.38 96.96 107.55 95.57 104.76C95.78 104.7 95.86 104.86 95.94 104.95C96.7878 105.842 97.8178 106.541 98.96 107C99.51 107.25 100.11 107.34 100.63 107.62C101.83 108.26 103.11 108.69 104.44 108.97C105.92 109.28 107.4 109.47 108.93 109.3C109.74 109.2 110.51 108.92 111.33 108.87C111.81 108.85 112.29 108.74 112.77 108.67C114 108.52 115.14 107.97 116.38 107.81C116.94 107.74 117.49 107.56 118.05 107.43C119.03 107.2 119.84 106.6 120.72 106.16C121.67 105.69 122.65 105.29 123.45 104.57C123.65 104.82 123.8 105.1 124.03 105.3C124.47 105.7 124.95 106.1 125.53 106.25C125.96 106.35 126.11 105.88 126.35 105.62C126.379 105.593 126.413 105.572 126.45 105.56C126.83 105.41 126.96 105.09 127.08 104.72C127.24 104.26 127.08 104.04 126.71 103.83C126.61 103.78 126.56 103.61 126.49 103.49C126.3 103.18 125.93 102.83 125.98 102.56C126.02 102.28 126.5 102.1 126.76 101.84C127.45 101.17 128.28 100.57 128.76 99.77C129.24 98.97 129.82 98.25 130.26 97.44C130.53 96.94 130.93 96.45 130.86 95.82C131.14 95.05 131.44 94.31 131.66 93.52C132.08 92.1 132.32 90.64 132.34 89.17C132.35 87.4 131.93 85.67 131.56 83.94C131.29 82.71 130.66 81.58 130.1 80.46C129.554 79.4542 128.889 78.5175 128.12 77.67C127.243 76.6092 126.315 75.5914 125.34 74.62C124.51 73.82 123.59 73.11 122.69 72.37C121.84 71.67 120.86 71.19 119.92 70.71C118.415 70.0012 116.835 69.4645 115.21 69.11C113.741 68.768 112.239 68.587 110.73 68.57C108.89 68.53 107.13 68.97 105.33 69.19C105.35 68.93 105.5 68.72 105.57 68.49C105.8 67.79 106.32 67.15 106.2 66.35C106.16 66.09 106.23 65.85 106.24 65.61C106.26 65.03 106.38 64.42 105.94 63.91C105.67 63.6 105.21 63.51 105 63.1C104.93 62.96 103.47 63.55 103.44 63.74C103.36 64.23 103.03 64.64 103.09 65.18C103.11 65.42 102.99 65.66 102.76 65.83C102.57 65.96 102.52 66.21 102.56 66.42C102.67 66.94 102.21 67.49 102.67 67.99C102.69 68 102.67 68.07 102.65 68.09C102.22 68.65 102.39 69.36 102.19 69.99C102.07 70.34 101.71 70.58 101.76 70.99C100.97 71.44 100.24 71.99 99.47 72.49C98.99 72.79 98.51 73.13 98.04 73.47C96.94 74.25 96.12 75.31 95.2 76.27C93.8121 77.4389 92.725 78.9238 92.03 80.6C91.96 80.75 91.91 80.92 91.83 81.08C91.33 81.92 90.94 82.86 90.88 83.8C90.8 84.92 90.43 85.98 90.35 87.1C90.28 87.98 89.97 88.87 90.06 89.75C90.17 90.93 90.04 92.08 90.05 93.38C89.58 92.58 89.1 91.92 88.82 91.18C88.66 90.77 88.3 90.52 88.19 90.09C88.0643 89.6249 87.8795 89.1779 87.64 88.76C86.94 87.53 86.33 86.26 85.72 84.98C85.26 84 84.82 83.01 84.38 82.02C83.96 81.1 83.67 80.15 83.32 79.22C82.8534 77.9497 82.36 76.6894 81.84 75.44C82.04 75.18 82.32 75.04 82.58 74.88C83.91 74.11 85.22 73.31 86.58 72.58C87.75 71.96 88.99 71.44 90.2 70.86C91.3 70.34 92.24 69.59 93.26 68.94C94.06 68.44 94.86 67.91 95.62 67.34C96.82 66.43 98.07 65.62 99.3 64.76C100.32 64.0586 101.357 63.3817 102.41 62.73C103.09 62.31 103.67 61.76 104.35 61.33C105.13 60.83 105.85 60.23 106.58 59.66C106.78 59.51 106.97 59.33 107.13 59.14C107.56 58.62 107.89 58.6 108.52 58.94C110.27 59.89 111.65 61.3 113.2 62.51C114.27 63.35 115.28 64.26 116.46 64.96C116.99 65.28 117.51 65.68 117.97 66.14C118.63 66.78 119.4 67.34 120.17 67.84C120.51 68.04 120.64 68.41 120.97 68.58C121.44 69.54 122.04 70.34 123.24 70.38C123.91 71 124.54 71.64 125.25 72.21C126.03 72.85 126.7 73.6 127.4 74.32C129 76.01 130.58 77.73 132.23 79.37C133.69 80.82 134.89 82.47 136.17 84.07C137.47 85.7 138.61 87.45 139.89 89.1C140.51 89.88 140.8 90.8 141.3 91.64C141.96 92.74 142.54 93.89 143.04 95.07C143.72 96.67 144.7 98.13 145.51 99.67C146.71 101.94 147.76 104.27 148.81 106.6C149.41 107.92 150.05 109.24 150.65 110.57C151.716 112.823 152.637 115.141 153.41 117.51C153.19 117.61 153.1 117.81 152.96 118.01C152.69 118.43 152.91 118.93 152.66 119.36C152.19 120.15 152.12 121.06 151.94 121.95C151.91 122.09 151.99 122.21 152 122.34C152.05 122.85 152.22 123.36 151.86 123.86C151.12 124.87 151.19 126.12 151 127.27C150.9 127.85 151.1 128.47 150.66 128.99C150.594 129.09 150.566 129.211 150.58 129.33C150.65 130.19 150.62 131.02 150.01 131.72C149.93 131.8 149.85 131.94 149.86 132.03C150.05 133.07 149.48 133.96 149.32 134.93C149.26 135.23 149.12 135.53 149.13 135.83C149.14 136.43 149.01 136.98 148.69 137.49C147.94 138.66 147.95 138.96 148.81 140.05C148.91 140.17 148.99 140.31 149.05 140.45C149.25 140.9 149.62 141.01 150.05 140.99C150.61 140.97 151.17 140.89 151.4 140.29C151.7 139.475 151.941 138.64 152.12 137.79C152.35 136.83 152.32 135.84 152.59 134.89C152.66 134.66 152.41 134.36 152.72 134.19C153.06 134.01 153.08 133.79 152.9 133.47C152.8 133.31 152.88 133.13 152.94 132.97C153.21 132.17 153.34 131.35 153.71 130.59C154.08 129.83 154.05 128.96 154.05 128.09C154.05 127.26 154.51 126.46 154.48 125.59C154.46 124.64 154.98 123.79 155 122.84C155.685 124.698 156.273 126.591 156.76 128.51C157.34 130.64 157.88 132.78 158.36 134.94C158.66 136.29 158.86 137.69 159.29 139.01C159.72 140.31 159.68 141.68 160.05 142.99C160.25 143.71 160.01 144.54 160.03 145.31C160.07 146.6 159.78 147.81 159.41 149.03C158.96 150.5 158.54 151.99 158.08 153.47C158.02 153.69 157.85 153.87 157.74 154.07C156.82 154.53 156.19 155.4 155.24 155.81C155.2 155.83 155.19 155.91 155.16 155.96ZM138.44 144.7C138.47 144.97 138.63 145 138.77 145.08C139.48 145.48 140.03 146.12 140.63 146.65C141.16 147.12 141.73 147.35 142.28 147.31C142.75 147.26 143.11 146.71 143.38 146.23C143.72 145.62 143.22 145.03 143.33 144.43C143.33 144.37 143.25 144.26 143.2 144.25C142.6 144.13 142.34 143.52 141.92 143.28C141.11 142.83 140.56 142.03 139.64 141.74C139.34 141.64 138.91 141.45 138.72 141.09C138.43 140.54 137.95 140.29 137.39 140.15C137.19 140.1 136.99 140.03 136.81 139.91C136.01 139.38 135.56 138.34 134.43 138.32C134.393 138.319 134.358 138.304 134.33 138.28C133.98 137.9 133.39 137.78 133.23 137.22C133.202 137.122 133.145 137.036 133.066 136.971C132.988 136.907 132.891 136.868 132.79 136.86C132.49 136.82 132.31 136.63 132.19 136.36C132.116 136.201 131.989 136.074 131.83 136C131.08 135.63 130.3 135.34 129.58 134.9C128.81 134.44 128.35 133.68 127.65 133.15C127.44 132.98 127.29 132.71 127.01 132.59C126.84 132.51 126.63 132.45 126.56 132.24C126.36 131.66 125.86 131.59 125.36 131.62C124.94 131.65 124.36 131.42 124.22 132.15C124.21 132.25 124.02 132.32 123.9 132.38C123.67 132.49 123.58 132.68 123.47 132.9C123.2 133.48 123.63 134.18 124.09 134.51C124.47 134.78 124.96 134.91 125.28 135.23C125.78 135.73 126.6 135.92 126.87 136.68C126.87 136.71 126.93 136.73 126.97 136.74C128.01 137.08 128.66 138.05 129.67 138.46C129.93 138.56 129.95 138.96 130.3 139.03C131.17 139.21 131.7 139.93 132.22 140.53C132.62 140.97 132.99 141.23 133.53 141.36C133.78 141.41 133.99 141.58 134.2 141.66C134.73 141.86 134.9 142.45 135.4 142.61C135.95 142.8 136.2 143.25 136.43 143.72C136.59 144.03 136.8 144.19 137.13 144.1C137.8 143.9 138.08 144.42 138.44 144.7ZM145.72 109.74C145.68 109.5 145.24 109.49 145.08 109.19C144.85 108.78 144.5 108.7 144.08 108.93C143.93 109.02 143.78 109.13 143.59 109.07C142.79 108.84 142.06 109.09 141.41 109.54C140.85 109.94 140.09 109.86 139.55 110.31C139.5 110.35 139.4 110.34 139.33 110.33C138.73 110.25 138.32 110.49 138.09 111.05C138.03 111.19 137.94 111.31 137.79 111.28C136.69 111.06 135.87 111.85 134.9 112.11C134.13 112.32 133.31 112.51 132.57 112.93C132.23 113.12 131.72 113.4 131.22 113.31C130.86 113.25 130.6 113.38 130.44 113.68C130.34 113.85 130.22 113.84 130.07 113.89C129.74 114.02 129.3 113.86 129.05 114.26C128.92 114.46 128.65 115.56 128.63 115.81C128.59 116.47 129.37 116.55 129.52 117.08C129.54 117.16 129.71 117.11 129.76 117.02C129.93 116.73 130.21 116.76 130.48 116.76C131.37 116.76 132.2 116.57 132.92 116.04C133.15 115.87 133.49 116.12 133.64 115.79C133.83 115.37 134.16 115.37 134.53 115.49C134.67 115.54 134.85 115.62 134.98 115.53C135.55 115.1 136.29 115.12 136.9 114.73C137.79 114.18 138.93 114.17 139.77 113.47C139.82 113.43 139.94 113.42 140 113.45C140.47 113.67 140.82 113.4 141.2 113.19C141.37 113.08 141.6 112.89 141.76 112.93C142.3 113.06 142.66 112.73 143.06 112.51C143.591 112.211 144.191 112.056 144.8 112.06C145.09 112.06 145.3 111.95 145.4 111.68C145.44 111.53 145.52 111.41 145.63 111.28C146.01 110.86 145.98 110.38 145.72 109.74Z" fill="#74C29B"/><path d="M101.22 115.8C101.75 116.94 102.48 117.98 103.1 119.09C103.96 120.62 104.75 122.19 105.64 123.72C106.21 124.72 106.89 125.66 107.54 126.63C108.04 127.39 108.53 128.15 109.05 128.89C109.66 129.76 110.33 130.58 110.93 131.44C112.33 133.44 114.03 135.22 115.39 137.27C115.75 137.82 116.28 138.26 116.69 138.78C117.37 139.66 118.04 140.56 118.76 141.41C119.16 141.87 119.56 142.31 119.96 142.73C120.78 143.58 121.55 144.46 122.33 145.33C122.5 145.53 122.63 145.76 122.93 145.83C123.41 145.93 123.43 146.43 123.69 146.74C123.99 147.14 123.93 147.64 124.04 148.08C124.31 149.18 124.82 150.16 125.27 151.18C125.86 152.48 126.42 153.8 127.13 155.06C127.85 156.33 128.2 157.76 128.74 159.1C129 159.75 129.29 160.38 129.54 161.03C129.99 162.15 130.4 163.29 130.86 164.41C131.14 165.11 131.49 165.78 131.81 166.46C131.22 167 130.88 167.71 130.5 168.39C130.36 168.64 130.4 168.85 130.74 169.09C131.25 169.46 131.95 169.35 132.39 169.87C132.55 170.07 132.83 169.85 132.96 169.65C133.05 169.52 133.09 169.36 133.14 169.22C133.5 169.87 133.29 170.14 132.57 170.28C131.79 170.42 131.05 170.74 130.43 171.26C129.87 171.72 129.58 171.75 128.99 171.33C127.91 170.56 126.66 170.1 125.54 169.38C123.88 168.31 122.18 167.3 120.62 166.07C118.87 164.69 117.03 163.42 115.22 162.1C114.034 161.233 112.851 160.363 111.67 159.49C111.54 159.39 111.45 159.27 111.34 159.16C111.6 159.16 111.85 159.2 112.04 159.4C112.14 159.51 112.3 159.56 112.41 159.47C112.74 159.21 112.94 159.43 113.21 159.6C113.87 160 114.58 160.3 115.27 160.66C115.87 160.98 116.37 161.5 117.14 161.43C117.44 161.41 117.54 161.64 117.64 161.85C117.8 162.19 118.08 162.33 118.41 162.5C118.88 162.74 119.46 162.6 119.87 162.94C120.12 163.14 120.43 163.27 120.67 163.22C121.04 163.16 121.47 163.5 121.75 163.08C121.95 162.8 122.09 162.48 122.25 162.17C122.72 161.27 122.67 161.3 121.92 160.69C121.32 160.2 120.68 159.79 119.96 159.53C119.79 159.47 119.72 159.34 119.64 159.21C119.55 159.05 119.47 158.89 119.28 158.84C118.34 158.59 117.58 157.84 116.53 157.84C116.4 157.84 116.26 157.78 116.18 157.65C115.83 157.05 115.17 156.98 114.62 156.73C114.02 156.46 113.22 156.7 112.78 156C112.73 155.9 112.53 155.9 112.4 155.87C112.24 155.83 112.09 155.78 112.02 155.62C111.89 155.31 111.62 155.22 111.32 155.15C110.87 155.05 110.42 154.91 109.97 154.79C109.77 154.74 109.55 154.72 109.48 154.51C109.24 153.78 108.63 153.61 107.98 153.48C107.804 153.456 107.634 153.398 107.48 153.31C107.033 153.032 106.512 152.898 105.987 152.924C105.461 152.951 104.956 153.138 104.54 153.46C103.74 152.93 103.17 152.17 102.49 151.52C102.1 151.15 101.75 150.74 101.33 150.39C100.23 149.42 99.37 148.21 98.43 147.09C99.03 146.68 99.77 146.49 100.33 145.99C100.66 145.68 100.91 145.23 101.48 145.53C101.52 145.55 101.62 145.53 101.64 145.49C101.92 144.95 102.61 144.86 102.92 144.42C103.41 143.72 104.07 143.51 104.83 143.27C106.03 142.9 107.02 142.09 108.11 141.48C108.19 141.44 108.24 141.3 108.29 141.2C108.46 140.79 108.79 140.62 109.2 140.59C109.558 140.566 109.907 140.461 110.219 140.282C110.531 140.104 110.798 139.857 111 139.56C111.3 139.16 111.64 138.76 112.12 138.5C112.83 138.12 112.97 137.31 112.46 136.69C111.77 135.83 110.47 135.6 109.64 136.32C109.22 136.68 108.84 137.1 108.44 137.52C108.27 137.69 108.13 137.78 107.89 137.84C107.09 138.04 106.37 138.45 105.8 139.04C105.56 139.29 105.37 139.43 105.02 139.41C104.84 139.4 104.57 139.24 104.45 139.53C104.35 139.8 104.09 139.87 103.89 140.01C103.19 140.51 102.27 140.71 101.76 141.49C101.71 141.56 101.54 141.56 101.43 141.59C100.51 141.81 99.7 142.31 99.03 142.93C98.54 143.38 98.01 143.79 97.43 143.93C96.93 144.06 96.59 144.23 96.33 144.64C95.4 143.34 94.51 142.01 93.48 140.79C92.9 140.09 92.51 139.24 91.88 138.59C91.28 137.96 90.86 137.21 90.32 136.55C89.88 136.02 89.72 135.33 89.4 134.74C88.98 133.98 88.62 133.18 88.18 132.44C87.6 131.44 87.14 130.39 86.68 129.34C86.7751 129.134 86.8222 128.909 86.8178 128.682C86.8134 128.455 86.7576 128.232 86.6546 128.03C86.5516 127.828 86.4041 127.652 86.2232 127.515C86.0422 127.378 85.8326 127.284 85.61 127.24C85.19 126.49 85.04 125.61 84.57 124.88C84.39 124.61 84.37 124.26 84.27 123.95C83.92 122.96 83.32 122.05 83.07 121.09C82.59 119.29 81.68 117.68 81.13 115.92C80.73 114.64 80.27 113.37 79.79 112.12C79.21 110.58 78.77 109 78.26 107.44C77.86 106.21 77.66 104.92 77.1 103.74C77.06 103.64 77.1 103.51 77.1 103.4C77.89 102.8 78.81 103.21 79.67 103.06C80.95 102.83 82.3 103.2 83.62 102.85C84.26 102.68 85.21 101.91 85.36 101.38C85.46 101.02 85.16 100.81 85.16 100.5C85.16 99.8 84.28 99.27 83.67 99.62C83.15 99.92 82.5 99.94 82.13 99.7C81.57 99.34 81.2 99.45 80.7 99.69C80 100.02 79.25 100.23 78.49 99.82C78.3543 99.7473 78.2039 99.7062 78.05 99.7C77.38 99.67 76.8 100.11 76.13 100.03C75.85 98.69 75.34 97.4 75.18 96.02C75.13 95.6 74.79 95.22 74.67 94.8C74.35 93.72 74.09 92.63 73.77 91.56C73.26 89.86 73.11 88.08 72.81 86.33C72.69 85.63 72.67 84.88 72.65 84.14C72.79 84.01 72.91 84.22 73.06 84.18L72.72 82.88C72.49 81.95 72.35 81.04 72.84 80.14C73.12 79.6 73.61 79.38 74.14 79.22C74.51 79.84 74.91 80.44 74.68 81.22C74.52 81.75 74.22 82.32 75 82.65C75.03 82.66 75.06 82.71 75.06 82.75C75.13 83.38 75.31 83.99 75.46 84.61C75.63 85.34 75.89 85.73 76.65 85.88C77.06 85.96 77.39 85.93 77.47 85.42C77.49 85.29 77.58 85.22 77.69 85.17C78.73 84.67 78.72 83.81 78.17 82.91C77.99 82.62 77.73 82.33 78.16 82.01C78.3 81.9 78.1 81.79 78.06 81.67C77.7852 81.0837 77.6713 80.4348 77.73 79.79C77.83 79.09 77.67 78.46 77.11 78.05C78.16 77.67 79.04 76.99 80.02 76.5C80.64 76.71 80.92 76.54 80.82 76.04C81.12 75.78 81.44 75.54 81.84 75.44C82.36 76.69 82.84 77.95 83.31 79.22C83.66 80.16 83.96 81.11 84.37 82.02C84.81 83.02 85.25 84.01 85.71 84.99C86.32 86.26 86.93 87.54 87.63 88.77C87.87 89.19 88.06 89.64 88.18 90.1C88.3 90.53 88.66 90.78 88.81 91.2C89.09 91.93 89.58 92.58 90.04 93.39C90.04 92.09 90.17 90.94 90.05 89.76C89.97 88.88 90.28 87.99 90.35 87.1C90.43 85.99 90.8 84.93 90.87 83.8C90.94 82.86 91.32 81.93 91.82 81.08C91.91 80.93 91.95 80.76 92.02 80.6C92.7196 78.9266 93.8101 77.4452 95.2 76.28C94.61 77.2 93.98 78.1 93.46 79.07C92.9 80.12 92.46 81.24 92.06 82.37C91.56 83.89 91.43 85.47 91.31 87.05C91.2227 88.3827 91.2428 89.7204 91.37 91.05C91.44 91.82 91.57 92.6 91.78 93.34C92.13 94.54 92.49 95.74 93.05 96.89C93.64 98.13 94.23 99.36 95.1 100.39C96.7547 102.263 98.7457 103.81 100.97 104.95C101.29 105.13 101.61 105.39 101.95 105.44C103.31 105.64 104.55 106.3 105.91 106.44C106.86 106.54 107.78 106.79 108.72 106.89C109.82 107.02 110.94 107.06 112.04 107.09C113 107.13 113.99 107.24 114.94 106.81C115.73 106.46 116.57 106.21 117.42 106C118.28 105.78 119.15 105.57 119.96 105.21C120.95 104.78 121.86 104.19 122.89 103.82C123.25 103.92 123.39 104.22 123.56 104.52C123.52 104.53 123.49 104.56 123.46 104.58C122.65 105.28 121.66 105.7 120.72 106.17C119.84 106.6 119.02 107.2 118.05 107.43C117.49 107.56 116.95 107.74 116.38 107.81C115.14 107.97 114 108.53 112.77 108.68C112.29 108.74 111.81 108.85 111.33 108.88C110.51 108.92 109.73 109.21 108.93 109.3C107.4 109.47 105.93 109.28 104.43 108.97C103.1 108.69 101.83 108.27 100.63 107.62C100.11 107.34 99.51 107.25 98.96 107C97.8172 106.543 96.787 105.843 95.94 104.95C95.85 104.85 95.78 104.7 95.56 104.76C96.96 107.55 98.24 110.38 99.79 113.08V113.09C99.09 113.45 98.5 113.99 98.03 114.57C97.51 115.22 96.73 115.76 96.69 116.72L96.65 116.76C95.65 117.98 95.44 119.47 95.29 120.95C95.19 121.89 95.38 122.85 95.59 123.8C95.76 124.58 96.04 125.3 96.29 126.03C96.85 127.59 98.27 128.51 99.17 129.81C99.22 129.89 99.36 129.9 99.41 129.97C99.69 130.36 100.31 130.17 100.55 130.61C100.7 130.89 100.93 130.97 101.2 131.04C102.03 131.26 102.83 131.52 103.62 131.84C103.87 131.94 103.98 131.84 104.07 131.61C104.37 130.86 104.32 130.07 104.29 129.28C104.27 128.9 104.05 128.7 103.68 128.61C102.55 128.32 101.48 127.91 100.78 126.91C100.54 126.58 100.12 126.56 99.93 126.23L98.53 123.79C98.4669 123.692 98.4355 123.577 98.44 123.46C98.52 122.9 98.22 122.36 98.34 121.76C98.39 121.52 98.57 121.29 98.54 120.99C98.51 120.47 98.59 119.93 98.66 119.39C98.75 118.74 99.21 118.26 99.5 117.71C99.92 116.91 100.62 116.41 101.2 115.79H101.22V115.8Z" fill="#519EA2"/><path d="M156.9 125.6C158.76 125.91 160.63 125.94 162.46 126.36C163.59 126.62 164.68 127 165.79 127.33C167.13 127.72 168.45 128.19 169.79 128.6C171.36 129.08 172.79 129.91 174.21 130.74C175.44 131.46 176.55 132.38 177.68 133.24C178.88 134.15 179.89 135.28 180.98 136.32C181.68 137 182.24 137.82 183.03 138.42C183.31 138.63 183.41 138.96 183.63 139.22C184.679 140.507 185.635 141.867 186.49 143.29C186.95 144.04 187.37 144.81 187.85 145.55C188.703 146.777 189.389 148.112 189.89 149.52C190.27 150.7 190.74 151.84 191.11 153.02C191.51 154.28 191.88 155.56 192.21 156.85C192.61 158.41 192.96 159.97 193.32 161.53C193.71 163.18 193.92 164.84 194.05 166.53C194.16 167.83 194.09 169.15 194.34 170.45C194.51 171.35 194.2 172.25 194.17 173.14C194.15 173.76 193.99 174.25 193.34 174.49C193.18 174.55 193.04 174.74 192.94 174.91C192.61 175.51 192.14 175.54 191.55 175.32C190.14 174.79 188.85 174.02 187.79 172.98C186.89 172.1 186.17 171.02 185.37 170.03C184.49 168.94 183.62 167.87 182.77 166.77C182.14 165.97 181.44 165.24 180.81 164.47C179.468 162.813 178.008 161.255 176.44 159.81C175.24 158.71 174.15 157.51 172.9 156.48C172 155.75 171.1 155.01 170.09 154.38C169.192 153.788 168.245 153.273 167.26 152.84C166.57 152.56 165.86 152.35 165.14 152.13C163.42 151.6 161.65 151.75 159.81 151.89C160.11 150.97 160.4 150.15 160.66 149.32C161.05 148.1 160.98 146.82 161.06 145.57C161.17 144.02 160.86 142.52 160.6 141.02C160.38 139.72 160.21 138.39 159.8 137.12C159.48 136.17 159.38 135.15 159.12 134.18C158.82 133.08 158.59 131.98 158.34 130.88C158.07 129.68 157.64 128.54 157.37 127.36C157.24 126.77 157.07 126.18 156.91 125.6H156.9Z" fill="#FFCB4A"/><path d="M128.55 172.27C128.85 172.27 128.95 172.4 128.9 172.72C128.67 174.34 128.4 175.96 128.25 177.59C128.14 178.77 128.3 179.95 128.39 181.13C128.5 182.83 128.84 184.49 129.29 186.13C129.79 187.91 130.3 189.69 130.99 191.41C131.72 193.2 132.4 195 133.15 196.77C133.744 198.158 134.378 199.528 135.05 200.88C135.65 202.13 135.79 203.48 135.97 204.81C136.04 205.32 135.97 205.96 135.39 206.33C135.279 206.399 135.197 206.506 135.16 206.632C135.123 206.757 135.134 206.892 135.19 207.01C135.36 207.35 135.27 207.46 134.92 207.59C134.333 207.786 133.711 207.857 133.094 207.799C132.478 207.74 131.88 207.553 131.34 207.25C129.7 206.48 128.48 205.21 127.1 204.12C126.382 203.569 125.703 202.967 125.07 202.32C124.31 201.53 123.4 200.89 122.74 200.01C122.39 199.54 121.9 199.21 121.55 198.74C121.33 198.44 121.08 198.22 121.1 197.78C121.1 197.57 120.83 197.34 120.67 197.13C119.559 195.706 118.524 194.224 117.57 192.69C117.44 192.48 117.27 192.28 117.09 192.11C116.43 191.55 116.11 190.75 115.65 190.04C114.99 189.02 114.26 188.04 113.72 186.94C113.59 186.3 113.17 185.81 112.84 185.28C112.82 185.25 112.7 185.28 112.63 185.28C112.13 183.88 111.56 182.49 111.14 181.07C110.74 179.7 110.32 178.34 109.84 176.99C109.47 175.95 109.45 174.79 109.13 173.72C108.9 172.98 108.68 172.22 108.57 171.47C108.379 170.246 108.279 169.009 108.27 167.77C108.28 167.29 108.04 166.82 108 166.31C107.88 165.01 107.76 163.71 107.73 162.41C107.71 161.66 107.68 160.93 107.77 160.2C107.87 159.42 107.92 158.64 107.97 157.76C109.15 158.93 110.43 159.78 111.61 160.76C112.77 161.73 114.04 162.56 115.26 163.44C116.3 164.21 117.31 165.03 118.36 165.78C119.91 166.88 121.39 168.06 123.02 169.04C124.1 169.69 125.17 170.34 126.23 171.02C126.53 171.22 126.96 171.22 127.18 171.56C127.41 171.95 127.88 172.04 128.18 172.34C128.3 172.46 128.43 172.34 128.55 172.27Z" fill="#D9AD3F"/><path d="M160.9 177.63C161.82 177.08 162.74 176.53 163.67 176C164.1 175.76 164.4 175.32 164.89 175.2C166.02 174.92 167.09 175.04 167.99 175.85C168.85 176.62 169.65 177.45 170.56 178.15C171.35 178.76 171.86 179.63 172.59 180.29C173.435 181.037 174.136 181.932 174.66 182.93C175.27 184.13 176.21 185.1 176.81 186.33C177.49 187.69 177.95 189.13 178.57 190.49C179.03 191.53 179.33 192.67 179.43 193.83C179.46 194.24 179.33 194.67 179.28 195.09C179.25 195.29 179.15 195.34 178.93 195.33C177.963 195.298 177.008 195.112 176.1 194.78C175.8 194.66 175.46 194.46 175.25 194.24C174.5 193.49 173.44 193.27 172.65 192.59C172.22 192.21 171.74 191.88 171.31 191.49C170.78 190.99 170.14 191.05 170 191.59C169.96 191.75 169.95 191.9 170.04 192.04C170.8 193.26 170.9 194.67 171.26 196.01C171.72 197.7 172.05 199.41 172.61 201.09C172.94 202.09 173.23 203.12 173.47 204.16C173.78 205.46 174.23 206.72 174.47 208.03C174.62 208.9 174.83 209.78 174.91 210.68C175.03 212.06 174.87 213.44 175.11 214.8C175.2 215.3 175.5 215.77 175.73 216.24C175.86 216.48 175.93 216.72 175.78 216.96C175.63 217.22 175.4 217.09 175.16 217.06C173.8 216.96 172.71 216.25 171.62 215.52C170.288 214.624 169.006 213.656 167.78 212.62C166.75 211.76 166.08 210.62 165.18 209.67C164.48 208.93 164.13 207.94 163.46 207.17C162.22 205.72 161.31 204.01 159.89 202.69C159.34 202.18 158.89 201.57 158.23 201.17C157.895 200.973 157.514 200.869 157.125 200.869C156.736 200.869 156.355 200.973 156.02 201.17C155.911 201.235 155.817 201.322 155.743 201.425C155.669 201.529 155.617 201.646 155.59 201.77C155.32 203.07 154.64 204.21 153.99 205.35C153.71 205.86 153.39 206.35 152.84 206.69C152.19 207.09 151.56 207.13 150.96 206.6C149.853 205.614 148.899 204.468 148.13 203.2C146.847 201.016 145.839 198.682 145.13 196.25C144.636 194.862 144.32 193.417 144.19 191.95C144.14 190.98 143.97 190.05 143.72 189.12C143.69 189.02 143.7 188.92 143.7 188.82C143.72 188.36 143.67 187.74 144.14 187.6C144.54 187.49 144.69 188.1 144.9 188.42C145.62 189.55 146.32 190.69 147.02 191.82C146.92 192.15 146.96 192.5 147.09 192.79C147.46 193.62 147.39 194.52 147.59 195.37C147.93 196.83 148.49 198.19 149.44 199.34C150.17 200.22 151.91 200.76 153.19 199.66C153.83 199.43 154.48 199.76 155.14 199.6C156.06 199.382 156.861 198.82 157.38 198.03C157.62 197.67 158.03 197.56 158.25 197.23C159 197.5 159.69 197.86 160.23 198.49C160.5 198.81 160.69 199.17 160.95 199.49C161.57 200.22 162.2 200.95 162.79 201.71C163.54 202.65 164.2 203.64 165.47 203.99C166.12 204.16 167.62 203.91 167.92 203.32C168.24 202.69 168.65 202.09 168.79 201.33C168.98 200.35 168.82 199.43 168.59 198.53C168.24 197.16 167.69 195.83 167.21 194.49C166.91 193.63 166.66 192.75 166.28 191.93C165.95 191.22 165.69 190.48 165.53 189.73C165.365 189.089 165.376 188.416 165.56 187.78C165.65 187.5 165.74 187.31 166.13 187.46C166.7 187.67 167.21 187.96 167.75 188.22C168.7 188.66 169.5 189.39 170.65 189.49C171.95 189.61 173.1 188.09 172.81 187.34C172.61 186.84 172.44 186.34 172.1 185.89C171.79 185.49 171.42 185.15 171.1 184.76C170.253 183.591 169.101 182.678 167.77 182.12C166.65 181.752 165.611 181.171 164.71 180.41C163.539 179.355 162.262 178.423 160.9 177.63Z" fill="#FFCB4A"/><path d="M137.02 173.63C136.81 173.6 136.78 173.4 136.69 173.25C135.77 171.65 134.79 170.09 133.94 168.45C133.14 166.9 132.52 165.24 131.74 163.66C130.92 161.97 130.41 160.16 129.64 158.45C129.26 157.57 128.99 156.63 128.65 155.73C128.4 155.05 127.99 154.45 127.72 153.77C127.28 152.68 126.74 151.63 126.24 150.57C125.94 149.92 125.7 149.23 125.3 148.63C125.06 148.27 125.15 147.87 125.1 147.5C124.97 146.5 124.58 145.54 124.68 144.48C124.76 143.64 125.22 143.06 125.87 142.82C126.84 142.46 127.83 142.14 128.81 141.68C128.87 143.06 129.21 144.34 129.43 145.63C129.73 147.41 130.36 149.09 130.93 150.78C131.59 152.72 132.26 154.68 133.27 156.45C133.97 157.66 134.52 158.92 135.07 160.18C135.49 161.14 135.82 162.15 136.37 163.03C137.37 164.61 138.12 166.32 139.01 167.95C139.53 168.9 140.11 169.79 140.64 170.73C141.44 172.18 142.13 173.71 143.08 175.07C143.6 175.79 143.92 176.61 144.44 177.35C144.98 178.12 145.46 178.97 146.01 179.75C146.61 180.61 147.07 181.56 147.84 182.31C148.14 182.61 148.27 183.11 148.52 183.51C149.72 185.34 151.03 187.09 152.27 188.91C153.2 190.27 154.13 191.65 155.25 192.88C155.32 192.97 155.46 193.1 155.44 193.15C155.19 193.72 155.66 194.06 155.84 194.49C155.91 195.29 155.78 196.06 155.54 196.83C155.39 197.3 155.1 197.49 154.69 197.43C154.09 197.34 153.514 197.129 152.998 196.809C152.482 196.49 152.037 196.068 151.69 195.57C150.913 194.465 150.043 193.428 149.09 192.47C148.91 192.31 148.68 192.19 148.56 191.94C148.49 191.79 148.37 191.76 148.22 191.84C147.72 191.31 147.47 190.61 147.05 190.03C146.12 188.75 145.42 187.33 144.51 186.03C144.11 185.46 143.89 184.74 143.49 184.15L142.55 182.75C142.315 182.4 142.101 182.036 141.91 181.66C141.6 181.06 141.18 180.53 140.83 179.94C140.09 178.71 139.21 177.55 138.57 176.25C138.35 175.4 137.76 174.75 137.37 173.97C137.3 173.83 137.25 173.64 137.02 173.64V173.63Z" fill="#FFCB4A"/><path d="M160.9 177.63C162.26 178.43 163.53 179.33 164.71 180.41C165.58 181.19 166.64 181.71 167.77 182.12C169.15 182.62 170.19 183.62 171.11 184.76C171.42 185.15 171.79 185.49 172.1 185.89C172.44 186.33 172.61 186.85 172.8 187.34C173.1 188.08 171.95 189.61 170.64 189.49C169.5 189.39 168.7 188.66 167.74 188.22C167.21 187.97 166.69 187.67 166.13 187.46C165.73 187.31 165.65 187.5 165.55 187.78C165.367 188.42 165.36 189.097 165.53 189.74C165.69 190.48 165.95 191.22 166.28 191.93C166.66 192.74 166.91 193.63 167.21 194.49C167.68 195.83 168.23 197.16 168.59 198.54C168.82 199.43 168.98 200.35 168.79 201.33C168.65 202.09 168.24 202.68 167.91 203.33C167.61 203.91 166.11 204.16 165.47 203.99C164.2 203.64 163.53 202.65 162.79 201.71C162.19 200.95 161.57 200.21 160.95 199.48C160.69 199.17 160.5 198.81 160.23 198.49C159.691 197.903 159.009 197.465 158.25 197.22C158.83 196.59 158.94 195.82 158.87 195.02C158.75 193.36 157.99 191.96 157.12 190.62C155.821 188.554 154.613 186.432 153.5 184.26C153.14 183.58 152.82 182.87 152.45 182.22C155.41 180.93 158.07 179.12 160.89 177.62L160.9 177.63Z" fill="#EF6054"/><path d="M158.08 158.2C159.21 159.85 160.22 161.59 161.5 163.1C162.48 164.25 163.26 165.55 164.35 166.63C165.08 167.35 165.64 168.28 166.36 169.03C166.88 169.59 167.39 170.15 167.92 170.69C168.12 170.89 168.14 171.03 167.94 171.22C166.86 172.27 165.87 173.37 164.53 174.16C163.75 174.61 162.94 175.11 162.2 175.66C161.61 176.1 160.88 176.35 160.22 176.7C159.41 177.14 158.64 177.64 157.88 178.15C157.38 178.49 156.8 178.67 156.31 179.02C155.11 179.9 153.68 180.42 152.51 181.36C152.27 181.56 152.15 181.56 152.02 181.26C150.98 178.8 149.82 176.39 148.93 173.87C148.41 172.41 147.76 170.99 147.23 169.54C146.73 168.19 146.17 166.84 145.85 165.41C146.19 165.73 146.66 165.85 147.03 166.11C148.1 166.85 148.28 168.31 149.41 169.03C149.84 169.3 149.53 169.93 149.76 170.26C150.3 171.04 150.13 171.98 150.41 172.81C150.71 173.67 150.45 174.53 150.19 175.37C150.14 175.54 149.97 175.79 150.23 175.89C150.86 176.13 151.37 176.6 152.08 176.67C152.41 176.7 152.7 176.61 152.82 176.33C153.19 175.49 153.21 174.56 153.29 173.66C153.35 172.96 153.05 172.24 153.15 171.56C153.27 170.7 152.91 169.98 152.65 169.28C152.195 168.094 151.601 166.966 150.88 165.92C150.48 165.34 149.97 164.89 149.46 164.42C148.99 164 148.32 163.95 147.89 163.48C147.79 163.38 147.6 163.31 147.65 163.12C147.68 162.94 147.85 162.97 147.98 162.97C148.26 162.97 148.48 162.83 148.68 162.68C149.93 161.78 151.28 161.02 152.58 160.18C152.98 160.6 153.5 160.93 154.06 160.76C154.7 160.56 155.26 160.14 155.68 159.59C155.88 159.32 156.08 159.19 156.41 159.26C156.79 159.33 157.05 159.16 157.19 158.81C157.35 158.4 157.67 158.23 158.09 158.21L158.08 158.2Z" fill="#74C29B"/><path d="M129.68 141.76C130.15 141.76 130.41 141.96 130.61 142.31C130.96 142.93 131.31 143.55 131.69 144.16C132.18 144.96 132.69 145.72 133.18 146.51C133.7 147.38 134.08 148.36 134.72 149.11C135.56 150.07 136.05 151.26 136.91 152.18C137.27 152.58 137.49 153.06 137.77 153.49C138.41 154.49 139.15 155.4 139.85 156.35C140.55 157.31 141.23 158.27 142 159.17C142.53 159.77 142.8 160.56 143.44 161.1C144 161.57 144.01 162.34 144.1 162.99C144.46 165.74 145.57 168.26 146.56 170.82C147.24 172.59 147.86 174.39 148.59 176.15C149.05 177.25 149.53 178.35 150.01 179.45C150.58 180.75 151.18 182.04 151.82 183.3C152.29 184.2 152.77 185.09 153.12 186.03C153.32 186.59 153.31 187.22 153.7 187.71C154.68 188.92 155.28 190.36 156.13 191.64C156.651 192.453 157.087 193.317 157.43 194.22C156.65 193.45 156.01 192.67 155.47 191.78C154.63 190.39 153.62 189.11 152.67 187.78C151.6 186.32 150.46 184.9 149.47 183.37C149.05 182.71 148.58 182.07 148.17 181.42C147.53 180.42 146.89 179.42 146.24 178.44C145.71 177.64 145.12 176.87 144.7 175.98C144.48 175.51 144.08 175.05 143.85 174.56C143.38 173.55 142.69 172.66 142.16 171.68L140.56 168.68C139.78 167.22 138.95 165.78 138.26 164.26C137.94 163.56 137.57 162.89 137.2 162.23C136.08 160.23 135.44 158.01 134.24 156.03C133.32 154.51 132.82 152.77 132.1 151.13C131.71 150.25 131.56 149.25 131.25 148.31C130.59 146.158 130.066 143.967 129.68 141.75V141.76Z" fill="#FFCB4A"/><path d="M79.93 75.31C78.8712 76.0542 77.7385 76.6875 76.55 77.2C75.8 77.53 75.07 77.96 74.27 78.2C73.97 78.28 73.96 78.18 73.91 77.93C73.65 76.49 73.85 75.05 73.81 73.61C73.76 72.13 73.74 70.66 73.74 69.19C73.74 67.61 73.67 66.03 73.78 64.44C73.82 63.72 73.73 62.97 73.8 62.24C73.87 61.35 74.04 60.48 74.08 59.6C74.13 58.55 74.38 57.54 74.57 56.52C74.83 55.12 75.01 53.69 75.42 52.31C75.76 51.17 76.08 50.01 76.44 48.88L76.52 48.6C76.59 48.25 76.92 48.26 77.12 48.26C77.42 48.25 77.3 48.54 77.28 48.72C77.11 50.16 76.83 51.59 76.67 53.02C76.4584 54.4597 76.4014 55.918 76.5 57.37C76.6 58.41 76.7 59.46 76.9 60.47C77.11 61.54 77.42 62.58 77.74 63.62C77.91 64.14 77.95 64.68 78.11 65.2C78.49 66.46 78.94 67.7 79.3 68.96C79.45 69.5 79.58 70.06 79.68 70.61C79.91 71.81 80.33 72.93 80.98 73.95C81.19 74.27 81.11 74.48 80.88 74.72C80.6 74.99 80.24 75.11 79.93 75.31Z" fill="#4661A7"/><path d="M131.38 171.8C131.22 173.23 130.81 174.56 130.62 175.93C130.48 176.93 130.56 177.93 130.78 178.92C130.87 179.32 130.82 179.72 130.9 180.12C131.25 181.96 132 183.68 132.64 185.42C133.58 188.01 134.78 190.49 135.6 193.12C135.72 193.49 135.9 193.86 136.09 194.18C136.69 195.16 137.04 196.26 137.52 197.29C137.94 198.19 138.28 199.15 138.56 200.12C138.87 201.22 139.15 202.32 139.15 203.47C139.15 205.14 138.37 206.34 136.84 207.19C137.16 205.99 137.24 204.83 137.1 203.64C136.977 202.591 136.686 201.568 136.24 200.61C134.894 197.658 133.627 194.67 132.44 191.65C132.02 190.59 131.72 189.48 131.29 188.42C130.73 187.02 130.41 185.55 130.11 184.09C129.78 182.465 129.579 180.817 129.51 179.16C129.41 177.02 129.87 174.93 129.94 172.8C129.94 172.66 129.97 172.54 130.11 172.46C130.51 172.24 130.87 171.93 131.38 171.8Z" fill="#D9AD3F"/><path d="M155 122.85C154.98 123.79 154.45 124.65 154.48 125.59C154.5 126.47 154.04 127.26 154.04 128.1C154.04 128.96 154.07 129.84 153.7 130.59C153.33 131.36 153.2 132.18 152.94 132.96C152.88 133.13 152.79 133.31 152.89 133.48C153.07 133.78 153.06 134.01 152.72 134.2C152.41 134.37 152.65 134.66 152.59 134.9C152.31 135.84 152.34 136.83 152.12 137.8C151.92 138.64 151.72 139.48 151.4 140.29C151.16 140.89 150.6 140.97 150.05 140.99C149.62 141.01 149.25 140.91 149.05 140.46C148.984 140.316 148.9 140.182 148.8 140.06C147.95 138.96 147.93 138.66 148.68 137.49C149.01 136.99 149.13 136.44 149.13 135.84C149.13 135.54 149.26 135.24 149.31 134.93C149.48 133.96 150.04 133.07 149.86 132.03C149.84 131.93 149.93 131.81 150 131.73C150.61 131.03 150.65 130.19 150.57 129.33C150.558 129.209 150.59 129.089 150.66 128.99C151.1 128.47 150.9 127.85 151 127.27C151.18 126.12 151.12 124.87 151.85 123.87C152.21 123.37 152.05 122.85 151.99 122.34C151.98 122.21 151.9 122.09 151.93 121.94C152.11 121.07 152.18 120.15 152.65 119.36C152.91 118.93 152.68 118.44 152.95 118.01C153.09 117.81 153.19 117.61 153.41 117.51C153.73 118.55 154.01 119.61 154.38 120.61C154.66 121.35 154.77 122.11 154.99 122.84L155 122.85Z" fill="#519EA2"/><path d="M104.54 153.46C104.956 153.138 105.461 152.951 105.987 152.924C106.512 152.898 107.033 153.032 107.48 153.31C107.62 153.41 107.81 153.45 107.98 153.48C108.63 153.61 109.24 153.78 109.48 154.5C109.55 154.72 109.78 154.74 109.96 154.79C110.42 154.91 110.86 155.04 111.33 155.15C111.62 155.22 111.89 155.3 112.03 155.62C112.09 155.78 112.24 155.83 112.4 155.87C112.53 155.91 112.72 155.91 112.78 155.99C113.22 156.69 114.02 156.45 114.62 156.73C115.17 156.98 115.83 157.05 116.18 157.65C116.25 157.78 116.4 157.83 116.53 157.83C117.57 157.83 118.33 158.58 119.28 158.83C119.48 158.89 119.55 159.05 119.64 159.2C119.72 159.34 119.79 159.47 119.96 159.53C120.68 159.79 121.31 160.2 121.92 160.69C122.67 161.29 122.72 161.26 122.25 162.17C122.09 162.47 121.95 162.8 121.75 163.08C121.47 163.5 121.03 163.16 120.67 163.22C120.42 163.26 120.12 163.14 119.87 162.93C119.46 162.59 118.88 162.73 118.4 162.5C118.07 162.33 117.8 162.2 117.64 161.85C117.54 161.64 117.44 161.41 117.14 161.43C116.37 161.5 115.87 160.98 115.26 160.66C114.58 160.31 113.86 160 113.21 159.6C112.94 159.43 112.74 159.2 112.41 159.47C112.3 159.57 112.15 159.51 112.04 159.4C111.84 159.2 111.6 159.16 111.34 159.16C108.974 157.382 106.704 155.479 104.54 153.46ZM96.33 144.64C96.59 144.23 96.93 144.06 97.43 143.93C98.01 143.78 98.53 143.38 99.03 142.93C99.6999 142.28 100.527 141.815 101.43 141.58C101.54 141.56 101.71 141.56 101.75 141.48C102.27 140.7 103.18 140.51 103.89 140.01C104.09 139.86 104.34 139.79 104.45 139.52C104.56 139.23 104.83 139.39 105.02 139.4C105.36 139.43 105.56 139.3 105.8 139.04C106.369 138.455 107.089 138.039 107.88 137.84C108.13 137.77 108.27 137.69 108.44 137.51C108.84 137.11 109.22 136.68 109.64 136.31C110.47 135.6 111.77 135.83 112.46 136.69C112.96 137.31 112.83 138.12 112.12 138.49C111.64 138.75 111.3 139.16 110.99 139.56C110.52 140.17 109.97 140.54 109.2 140.59C108.8 140.61 108.46 140.79 108.28 141.19C108.24 141.3 108.19 141.44 108.1 141.49C107.02 142.09 106.02 142.89 104.83 143.27C104.07 143.51 103.4 143.72 102.92 144.42C102.61 144.86 101.92 144.95 101.64 145.49C101.62 145.52 101.51 145.55 101.47 145.53C100.91 145.23 100.66 145.67 100.32 145.98C99.77 146.48 99.03 146.68 98.42 147.08C97.72 146.28 97.03 145.45 96.33 144.64Z" fill="#45868A"/><path d="M152.57 160.17C151.27 161.02 149.93 161.77 148.67 162.68C148.47 162.83 148.25 162.96 147.98 162.98C147.85 162.98 147.68 162.94 147.64 163.12C147.6 163.32 147.79 163.37 147.89 163.48C148.32 163.95 148.99 164 149.45 164.43C149.96 164.89 150.48 165.34 150.88 165.92C151.6 166.97 152.18 168.11 152.64 169.28C152.91 169.98 153.27 170.7 153.14 171.55C153.04 172.24 153.34 172.97 153.28 173.66C153.21 174.56 153.18 175.49 152.82 176.34C152.7 176.61 152.42 176.7 152.07 176.67C151.37 176.61 150.85 176.13 150.23 175.89C149.97 175.79 150.13 175.54 150.19 175.37C150.45 174.53 150.7 173.67 150.41 172.81C150.12 171.98 150.29 171.04 149.75 170.26C149.53 169.92 149.83 169.3 149.4 169.03C148.28 168.31 148.1 166.85 147.03 166.11C146.66 165.84 146.19 165.73 145.85 165.41C145.64 165.1 145.57 164.74 145.52 164.37C146.14 164.14 146.56 163.59 147.2 163.37C147.54 163.26 147.2 163.07 147.12 163.01C146.79 162.75 146.42 162.53 146.08 162.29C147.52 161.46 148.93 160.59 150.41 159.81C151.05 159.48 151.61 158.98 152.33 158.81C152.13 159.33 152.43 159.71 152.67 160.11L152.57 160.17Z" fill="#519EA2"/><path d="M184.06 172.5C182.79 171.3 182 169.7 180.82 168.43C179.94 167.47 179.13 166.43 178.27 165.44C177.56 164.62 176.69 163.91 176.13 162.95C175.93 162.61 175.55 162.51 175.29 162.25C174.53 161.5 173.79 160.72 172.95 160.1C171.33 158.91 169.91 157.45 168.15 156.47C166.6 155.59 165.09 154.55 163.35 154.03C162.29 153.72 161.17 153.71 160.07 153.68C159.96 153.51 159.87 153.33 159.87 153.12C160.35 152.92 160.81 152.78 161.34 152.93C161.58 153 161.85 153.01 162.09 152.97C163.59 152.73 164.91 153.29 166.25 153.77C167.25 154.14 168.25 154.56 169.12 155.15C170.09 155.82 171.1 156.45 171.93 157.33C172.95 158.41 174.08 159.38 175.19 160.36C175.92 161 176.55 161.74 177.22 162.44C178.13 163.4 179.12 164.31 179.93 165.35C180.78 166.44 181.63 167.54 182.53 168.58C183.46 169.66 184.28 170.84 185.18 171.95C186.039 173.012 186.993 173.992 188.03 174.88C188.95 175.68 189.99 176.31 191.23 176.54C191.26 176.54 191.28 176.59 191.31 176.61C190.95 176.9 189.12 176.77 188.35 176.41C187.48 175.61 186.57 174.84 185.56 174.21L185.45 174.14C185.12 173.48 184.8 172.81 184.05 172.51H184.06V172.5Z" fill="#D9AD3F"/><path d="M138.24 186.48C137.73 185.53 137.57 184.47 137.26 183.45C136.79 181.92 136.48 180.33 135.76 178.87C135.41 178.17 135.26 177.37 135.01 176.62L133.56 171.92C133.52 171.78 133.43 171.67 133.4 171.54C133.36 171.34 132.96 171.15 133.31 170.97C133.58 170.84 133.95 170.49 134.23 171.05C134.48 171.57 134.78 172.07 135.07 172.56C136.1 174.26 137.06 176.01 138.17 177.65C138.98 178.83 139.65 180.1 140.51 181.25C140.9 181.78 141.15 182.41 141.51 182.95C142.09 183.81 142.61 184.7 143.13 185.59C143.6 186.39 143.6 186.39 142.77 186.84C142.23 186.57 141.73 186.14 141.07 186.28C140.77 186.34 140.49 186.29 140.21 186.2C139.883 186.085 139.534 186.051 139.191 186.1C138.848 186.148 138.522 186.279 138.24 186.48Z" fill="#519EA2"/><path d="M76.13 100.03C76.8 100.11 77.38 99.67 78.04 99.7C78.21 99.7 78.34 99.75 78.49 99.82C79.25 100.22 79.99 100.02 80.69 99.68C81.19 99.45 81.56 99.34 82.12 99.7C82.5 99.94 83.15 99.92 83.67 99.62C84.27 99.27 85.17 99.8 85.16 100.49C85.16 100.81 85.46 101.02 85.36 101.39C85.2 101.91 84.26 102.67 83.61 102.85C82.3 103.2 80.95 102.83 79.67 103.05C78.81 103.21 77.88 102.8 77.1 103.39C77.02 103.31 76.92 103.26 76.9 103.13L76.13 100.03ZM77.11 78.04C77.67 78.46 77.84 79.09 77.73 79.79C77.63 80.43 77.82 81.07 78.06 81.67C78.1 81.78 78.3 81.9 78.16 82C77.73 82.33 77.99 82.62 78.16 82.91C78.73 83.81 78.73 84.67 77.69 85.17C77.59 85.22 77.49 85.29 77.47 85.42C77.39 85.92 77.07 85.96 76.65 85.87C75.89 85.72 75.63 85.34 75.46 84.61C75.31 83.99 75.13 83.38 75.06 82.75C75.06 82.71 75.03 82.66 75.01 82.65C74.22 82.33 74.52 81.75 74.68 81.22C74.91 80.44 74.51 79.84 74.14 79.22C75.22 79.04 76.12 78.42 77.12 78.05L77.11 78.04Z" fill="#45868A"/><path d="M75.36 37.47C75.63 37.94 75.59 38.73 75.24 39.54C75.19 39.66 75.13 39.76 75 39.76C74.27 39.74 73.88 40.29 73.42 40.72C73.37 40.77 73.32 40.85 73.26 40.87C72.64 41.03 71.46 40.32 71.08 39.77C70.55 39.02 70.58 38.24 70.65 37.4C70.73 36.32 71.85 35.19 73.15 35.67C74.0923 35.9605 74.8848 36.6059 75.36 37.47Z" fill="#FFCB4A"/><path d="M153.19 199.66C151.91 200.76 150.17 200.22 149.44 199.34C148.52 198.179 147.883 196.82 147.58 195.37C147.38 194.52 147.45 193.62 147.09 192.79C146.953 192.485 146.928 192.141 147.02 191.82C147.55 192.43 147.98 193.12 148.42 193.79C149.05 194.76 149.6 195.79 150.34 196.69C150.49 196.86 150.58 197.09 150.66 197.31C150.866 197.874 151.203 198.38 151.643 198.789C152.082 199.197 152.613 199.496 153.19 199.66Z" fill="#EF6054"/><path d="M76.4 46.32C75.94 45.09 75.13 43.87 74.4 42.61C74.33 42.47 74.26 42.33 74.16 42.21C73.59 41.48 73.66 41.16 74.54 40.91C74.87 40.83 75.23 40.41 75.49 40.66C75.83 40.99 75.99 41.5 76.23 41.93C76.4 42.24 76.36 42.6 76.53 42.93C77.03 43.91 77.53 44.89 78.23 45.76C78.37 45.92 78.32 46.05 78.13 46.12C77.89 46.22 77.75 46.43 77.57 46.6C76.92 47.19 76.92 47.2 76.4 46.32Z" fill="#FFCB4A"/><path d="M148.22 191.84C148.37 191.76 148.49 191.79 148.56 191.94C148.67 192.19 148.9 192.3 149.09 192.48C150.07 193.41 150.89 194.48 151.69 195.57C152.42 196.54 153.42 197.27 154.69 197.43C155.09 197.49 155.39 197.3 155.54 196.83C155.78 196.06 155.9 195.29 155.84 194.49C156.36 195.15 156.54 195.89 156.46 196.72C156.36 197.56 155.93 198.07 155.09 198.23C154.76 198.3 154.43 198.3 154.11 198.36C153.21 198.53 152.61 198.1 152.15 197.41C151.85 196.97 151.51 196.59 151.17 196.18C150.65 195.55 150.18 194.86 149.73 194.17C149.23 193.4 148.6 192.7 148.23 191.84H148.22Z" fill="#D9AD3F"/><path d="M152.68 160.1C152.43 159.71 152.14 159.33 152.34 158.82C153.74 157.91 155.3 157.24 156.64 156.19C156.94 155.96 157.11 156.02 157.17 156.4C157.22 156.7 157.35 156.95 157.59 157.14C157.16 157.52 156.75 157.98 156.21 158.19C154.95 158.69 153.86 159.49 152.68 160.1ZM138.24 186.48C138.85 186.08 139.51 185.97 140.21 186.2C140.49 186.3 140.77 186.34 141.07 186.28C141.73 186.15 142.23 186.57 142.77 186.84C142.2 187.24 141.68 187.71 140.97 187.89C140.38 188.05 139.78 188.09 139.19 188.03C138.77 188 138.49 187.65 138.38 187.23C138.31 186.99 138.28 186.73 138.24 186.48Z" fill="#45868A"/><path d="M152.68 160.1C153.86 159.49 154.95 158.69 156.21 158.2C156.76 157.98 157.16 157.53 157.59 157.14L158.09 158.21C157.67 158.24 157.35 158.4 157.19 158.81C157.05 159.16 156.79 159.33 156.41 159.26C156.08 159.2 155.88 159.32 155.68 159.59C155.27 160.14 154.7 160.57 154.06 160.76C153.5 160.93 152.98 160.61 152.57 160.18L152.67 160.11L152.68 160.1Z" fill="#519FA3"/><path d="M133.14 169.22C133.08 169.36 133.04 169.52 132.96 169.65C132.83 169.85 132.55 170.06 132.39 169.87C131.95 169.35 131.25 169.47 130.73 169.09C130.4 168.85 130.36 168.64 130.5 168.39C130.88 167.71 131.22 167 131.8 166.46C132.2 167.36 132.6 168.25 133.15 169.06C133.18 169.09 133.15 169.16 133.14 169.22ZM146.08 162.3C146.43 162.53 146.79 162.75 147.13 163.01C147.21 163.08 147.54 163.26 147.21 163.38C146.57 163.6 146.14 164.14 145.52 164.38C145.52 164.08 145.33 163.87 145.22 163.62C145.01 163.12 145.14 162.79 145.62 162.55C145.78 162.48 145.92 162.38 146.08 162.3Z" fill="#45868A"/><path d="M85.6 127.24C85.8226 127.284 86.0322 127.378 86.2132 127.515C86.3941 127.652 86.5416 127.828 86.6446 128.03C86.7476 128.232 86.8034 128.455 86.8078 128.682C86.8122 128.909 86.7651 129.134 86.67 129.34C86.2 128.94 86.16 128.31 85.86 127.81C85.76 127.64 85.69 127.43 85.61 127.24H85.6Z" fill="#46888D"/><path d="M123.23 70.4C122.03 70.34 121.43 69.55 120.96 68.58C121.63 68.75 121.93 69.38 122.43 69.75C122.7 69.95 123.09 70.02 123.23 70.39V70.4Z" fill="#52A0A5"/><path d="M185.56 174.21C186.57 174.84 187.48 175.61 188.36 176.41C188.28 176.41 188.18 176.45 188.13 176.41C187.184 175.788 186.32 175.049 185.56 174.21Z" fill="#FAC84D"/><path d="M155.16 155.96C155.18 155.91 155.19 155.83 155.23 155.81C156.19 155.41 156.82 154.53 157.73 154.08C157.75 154.42 157.55 154.6 157.28 154.75L155.16 155.96Z" fill="#55A4AA"/><path d="M137.02 173.63C137.24 173.63 137.3 173.83 137.37 173.97C137.75 174.74 138.34 175.4 138.57 176.25C138.27 176.13 138.3 175.8 138.17 175.57C137.79 174.92 137.24 174.37 137.02 173.63Z" fill="#D2AB49"/><path d="M159.88 153.12C159.86 153.33 159.96 153.51 160.07 153.68L159.08 153.94C159.2 153.48 159.32 153.09 159.88 153.12Z" fill="#FCC94B"/><path d="M184.06 172.5C184.8 172.8 185.12 173.47 185.46 174.13C184.8 173.75 184.56 173.01 184.06 172.5Z" fill="#F6C64E"/><path d="M112.63 185.27C112.7 185.27 112.82 185.25 112.83 185.28C113.17 185.81 113.59 186.3 113.72 186.94C113.22 186.47 112.94 185.86 112.62 185.27L112.63 185.27Z" fill="#FECB4A"/><path d="M72.72 82.88L73.06 84.18C72.9 84.22 72.79 84.01 72.65 84.14C72.57 83.71 72.68 83.3 72.72 82.88Z" fill="#5FB9BE"/><path d="M128.55 172.27C128.44 172.33 128.3 172.46 128.19 172.34C127.89 172.04 127.41 171.94 127.18 171.56L128.55 172.27Z" fill="#F5C651"/><path d="M80.83 76.04C80.93 76.54 80.63 76.71 80.03 76.5L80.83 76.04Z" fill="#74C29B"/><path d="M122.89 103.82C121.87 104.19 120.95 104.78 119.96 105.22C119.16 105.57 118.28 105.78 117.42 106C116.58 106.22 115.72 106.45 114.94 106.81C113.99 107.24 113 107.13 112.04 107.09C110.94 107.06 109.83 107.02 108.72 106.89C107.78 106.79 106.86 106.54 105.91 106.44C104.54 106.3 103.31 105.64 101.95 105.44C101.61 105.39 101.29 105.13 100.97 104.94C98.7475 103.806 96.7567 102.266 95.1 100.4C94.2753 99.322 93.5868 98.1465 93.05 96.9C92.526 95.7482 92.1011 94.5539 91.78 93.33C91.5701 92.585 91.4328 91.8214 91.37 91.05C91.2428 89.7204 91.2227 88.3827 91.31 87.05C91.43 85.47 91.55 83.89 92.07 82.37C92.46 81.24 92.91 80.12 93.47 79.07C93.97 78.1 94.61 77.2 95.2 76.27C96.12 75.31 96.93 74.26 98.04 73.47C98.51 73.14 98.99 72.8 99.47 72.49C100.24 71.99 100.97 71.44 101.76 70.99C102.61 70.5 103.46 70.02 104.3 69.52C104.63 69.32 104.96 69.19 105.33 69.19C107.13 68.97 108.89 68.53 110.73 68.58C112.25 68.61 113.72 68.76 115.2 69.12C116.82 69.52 118.43 69.97 119.91 70.72C120.86 71.19 121.83 71.67 122.69 72.38C123.59 73.11 124.5 73.82 125.34 74.63C126.33 75.59 127.22 76.63 128.11 77.68C128.85 78.55 129.59 79.43 130.11 80.46C130.66 81.59 131.29 82.72 131.55 83.94C131.93 85.67 132.35 87.41 132.33 89.18C132.307 90.6538 132.082 92.1175 131.66 93.53C131.43 94.31 131.13 95.06 130.86 95.82C130.4 96.34 130.19 97 129.78 97.56C129.02 98.56 128.31 99.59 127.36 100.42C126.71 101 126.02 101.52 125.46 102.2C125 102.24 124.79 102.68 124.4 102.88C123.88 103.15 123.26 103.31 122.88 103.83L122.89 103.82ZM129.34 81.45C128.427 79.8476 127.329 78.3575 126.07 77.01C125.27 76.11 124.45 75.21 123.55 74.4C123.27 74.15 122.95 74 122.67 73.77C121.94 73.18 121.17 72.61 120.33 72.17C119.08 71.52 117.82 70.84 116.39 70.56C114.91 70.26 113.49 69.71 111.93 69.69C110.343 69.6513 108.756 69.7652 107.19 70.03C106.12 70.23 105.02 70.39 104.05 70.99C103.65 71.24 103.37 71.69 102.92 71.79C102.25 71.93 101.7 72.37 101.22 72.73C99.81 73.82 98.11 74.55 96.98 76.03C96.57 76.58 96.1 77.11 95.74 77.68C95.24 78.45 94.74 79.21 94.29 79.99C93.88 80.69 93.59 81.44 93.38 82.19C93.06 83.26 92.68 84.34 92.6 85.48C92.5 86.7 92.23 87.92 92.34 89.15C92.49 90.88 92.69 92.61 93.19 94.28C93.29 94.6 93.44 94.89 93.54 95.21C94.2212 97.3027 95.3979 99.1998 96.97 100.74C98.5132 102.228 100.299 103.442 102.25 104.33C103.33 104.83 104.51 105.03 105.65 105.29C107.02 105.59 108.42 105.72 109.81 105.83C111.11 105.94 112.42 106.2 113.73 105.86C114.74 105.6 115.74 105.29 116.76 105.08C118.286 104.765 119.756 104.223 121.12 103.47C121.96 103 122.85 102.61 123.63 102.03C124.13 101.65 124.63 101.24 125.18 100.93C126.15 100.37 126.76 99.42 127.58 98.7C128.13 98.21 128.48 97.5 128.93 96.9C129.21 96.55 129.48 96.14 129.66 95.73C130.14 94.67 130.6 93.58 130.79 92.41C130.97 91.35 131.19 90.3 131.16 89.19C131.11 87.88 130.88 86.62 130.6 85.35C130.28 83.95 130.18 82.49 129.34 81.45Z" fill="#5272C4"/><path d="M138.44 144.7C138.08 144.42 137.8 143.9 137.14 144.1C136.8 144.2 136.58 144.03 136.44 143.72C136.2 143.25 135.95 142.8 135.39 142.62C134.89 142.44 134.73 141.85 134.2 141.66C134 141.58 133.78 141.41 133.53 141.36C132.99 141.23 132.62 140.96 132.23 140.52C131.69 139.94 131.16 139.22 130.29 139.02C129.95 138.96 129.93 138.56 129.67 138.45C128.66 138.05 128.01 137.08 126.97 136.74C126.93 136.73 126.87 136.71 126.87 136.68C126.6 135.91 125.78 135.73 125.27 135.23C124.96 134.91 124.47 134.78 124.09 134.51C123.63 134.18 123.19 133.48 123.47 132.9C123.57 132.67 123.67 132.5 123.9 132.38C124.02 132.32 124.2 132.24 124.22 132.15C124.36 131.42 124.94 131.65 125.36 131.62C125.86 131.59 126.36 131.66 126.56 132.24C126.63 132.44 126.83 132.51 127.01 132.59C127.29 132.71 127.44 132.98 127.65 133.14C128.35 133.68 128.81 134.44 129.57 134.9C130.3 135.34 131.08 135.63 131.83 136C132.01 136.08 132.11 136.2 132.18 136.37C132.31 136.63 132.48 136.81 132.79 136.86C132.889 136.87 132.984 136.91 133.06 136.974C133.137 137.038 133.193 137.124 133.22 137.22C133.38 137.79 133.98 137.9 134.32 138.28C134.34 138.31 134.39 138.32 134.42 138.32C135.56 138.34 136.01 139.38 136.8 139.91C137 140.03 137.18 140.1 137.39 140.15C137.95 140.3 138.43 140.55 138.72 141.09C138.91 141.45 139.34 141.64 139.64 141.74C140.56 142.04 141.11 142.84 141.91 143.28C142.34 143.52 142.6 144.13 143.19 144.25C143.25 144.25 143.34 144.37 143.33 144.43C143.22 145.03 143.72 145.62 143.37 146.23C143.1 146.7 142.75 147.26 142.27 147.31C141.72 147.36 141.17 147.12 140.63 146.65C140.03 146.12 139.48 145.48 138.76 145.08C138.63 145 138.47 144.96 138.44 144.69V144.7ZM145.72 109.74C145.98 110.38 146.01 110.86 145.62 111.29C145.52 111.41 145.44 111.53 145.39 111.68C145.29 111.95 145.09 112.06 144.8 112.06C144.18 112.06 143.6 112.2 143.05 112.51C142.65 112.73 142.3 113.06 141.76 112.93C141.6 112.89 141.37 113.08 141.19 113.19C140.82 113.4 140.47 113.67 139.99 113.45C139.94 113.42 139.82 113.43 139.77 113.47C138.93 114.17 137.78 114.18 136.9 114.74C136.3 115.12 135.55 115.1 134.98 115.53C134.85 115.63 134.68 115.53 134.53 115.49C134.15 115.37 133.83 115.37 133.64 115.79C133.49 116.13 133.14 115.87 132.92 116.04C132.2 116.57 131.37 116.77 130.48 116.76C130.21 116.76 129.93 116.73 129.76 117.02C129.7 117.11 129.54 117.16 129.51 117.08C129.37 116.55 128.59 116.48 128.63 115.81C128.64 115.56 128.93 114.46 129.05 114.26C129.3 113.86 129.74 114.02 130.07 113.89C130.22 113.84 130.35 113.85 130.44 113.69C130.6 113.39 130.86 113.25 131.22 113.31C131.72 113.41 132.22 113.12 132.56 112.93C133.31 112.51 134.13 112.33 134.9 112.11C135.87 111.85 136.69 111.06 137.79 111.28C137.94 111.31 138.03 111.18 138.09 111.05C138.31 110.49 138.73 110.25 139.33 110.33C139.4 110.33 139.5 110.35 139.55 110.31C140.09 109.86 140.85 109.93 141.41 109.54C142.06 109.09 142.78 108.84 143.59 109.07C143.79 109.13 143.93 109.02 144.09 108.94C144.49 108.7 144.85 108.78 145.08 109.19C145.24 109.49 145.68 109.5 145.72 109.74ZM99.79 113.08C100.16 112.85 100.54 112.66 100.82 112.26C101.13 111.8 101.77 111.9 102.25 111.72C103.05 111.44 103.88 111.26 104.73 111.15C105.33 111.08 105.9 111.21 106.45 111.27C107.56 111.4 108.7 111.51 109.75 111.95C110.37 112.22 110.96 112.61 111.5 113.04C111.74 113.22 112.02 113.29 112.26 113.46C113.14 114.06 113.82 114.86 114.34 115.78C114.64 116.32 114.56 116.61 114.02 116.93L113.11 117.46C112.38 117.88 112.04 117.76 111.55 117.06C110.873 116.018 109.844 115.255 108.65 114.91C107.59 114.61 106.54 114.29 105.42 114.21C105.19 114.19 105 114.26 104.8 114.31C104.13 114.47 103.47 114.76 102.79 114.85C102.1 114.95 101.71 115.42 101.22 115.79H101.21C100.68 114.92 100.13 114.06 99.78 113.09V113.08H99.79ZM105.34 69.2C104.96 69.19 104.63 69.32 104.31 69.52L101.76 70.99C101.71 70.58 102.06 70.34 102.18 69.99C102.38 69.37 102.21 68.66 102.64 68.09C102.67 68.07 102.68 68 102.67 67.99C102.2 67.49 102.67 66.94 102.56 66.42C102.51 66.22 102.56 65.97 102.76 65.84C102.99 65.67 103.11 65.42 103.08 65.19C103.02 64.65 103.35 64.23 103.43 63.74C103.46 63.56 104.93 62.96 104.99 63.1C105.2 63.52 105.67 63.6 105.94 63.92C106.37 64.42 106.26 65.03 106.24 65.62C106.23 65.86 106.16 66.1 106.2 66.36C106.31 67.16 105.79 67.79 105.56 68.49C105.49 68.72 105.34 68.93 105.33 69.19L105.34 69.2ZM125.46 102.2C126.02 101.52 126.72 101 127.36 100.42C128.31 99.59 129.02 98.55 129.78 97.55C130.19 97 130.4 96.33 130.86 95.82C130.92 96.45 130.53 96.95 130.26 97.44C129.82 98.24 129.24 98.97 128.76 99.77C128.28 100.57 127.45 101.17 126.76 101.84C126.5 102.1 126.01 102.29 125.97 102.56C125.93 102.84 126.3 103.18 126.49 103.49C126.56 103.61 126.6 103.78 126.7 103.84C127.07 104.04 127.23 104.26 127.08 104.72C126.96 105.09 126.83 105.41 126.44 105.56C126.403 105.573 126.369 105.593 126.34 105.62C126.11 105.88 125.96 106.36 125.53 106.25C124.963 106.055 124.449 105.729 124.03 105.3C123.79 105.1 123.63 104.82 123.45 104.57L123.55 104.51C123.97 104.21 124.55 104.11 124.78 103.58C124.88 103.34 125.01 103.18 125.28 103.05C125.61 102.89 125.78 102.56 125.46 102.19V102.2Z" fill="#519EA2"/><path d="M99.78 113.1C100.13 114.06 100.68 114.92 101.21 115.79C100.62 116.41 99.91 116.9 99.5 117.71C99.2 118.26 98.74 118.74 98.66 119.39C98.59 119.92 98.5 120.47 98.55 120.99C98.57 121.29 98.39 121.52 98.35 121.76C98.22 122.36 98.51 122.89 98.45 123.46C98.43 123.56 98.47 123.7 98.52 123.79L99.92 126.23C100.12 126.56 100.53 126.58 100.77 126.91C101.47 127.91 102.55 128.32 103.67 128.61C104.05 128.71 104.27 128.9 104.29 129.28C104.32 130.07 104.36 130.85 104.06 131.61C103.98 131.83 103.86 131.94 103.62 131.84C102.83 131.52 102.02 131.25 101.2 131.04C100.93 130.97 100.7 130.89 100.54 130.61C100.31 130.18 99.69 130.36 99.41 129.97C99.35 129.9 99.21 129.89 99.16 129.81C98.26 128.51 96.86 127.59 96.29 126.03C96.03 125.3 95.76 124.58 95.59 123.8C95.3409 122.872 95.2397 121.91 95.29 120.95C95.43 119.47 95.65 117.98 96.65 116.76C96.66 116.75 96.68 116.73 96.68 116.71C96.74 115.75 97.51 115.21 98.03 114.56C98.5044 113.953 99.1005 113.453 99.78 113.09V113.1Z" fill="#45868A"/><path d="M125.46 102.2C125.77 102.56 125.61 102.89 125.27 103.05C125.045 103.157 124.869 103.347 124.78 103.58C124.55 104.11 123.98 104.21 123.56 104.51C123.39 104.22 123.26 103.91 122.89 103.82C123.26 103.31 123.89 103.15 124.4 102.88C124.79 102.68 125 102.23 125.46 102.19V102.2Z" fill="#45868B"/><path d="M129.34 81.45C130.18 82.48 130.28 83.95 130.59 85.35C130.88 86.62 131.11 87.88 131.16 89.19C131.2 90.29 130.96 91.35 130.79 92.41C130.59 93.58 130.14 94.66 129.66 95.73C129.47 96.14 129.21 96.54 128.93 96.9C128.47 97.5 128.13 98.21 127.58 98.7C126.76 99.42 126.15 100.37 125.18 100.93C124.63 101.24 124.14 101.65 123.63 102.03C122.85 102.61 121.96 103 121.13 103.47C119.763 104.224 118.289 104.766 116.76 105.08C115.74 105.29 114.74 105.6 113.73 105.86C112.43 106.2 111.11 105.94 109.81 105.83C108.416 105.74 107.03 105.56 105.66 105.29C104.51 105.04 103.32 104.84 102.26 104.32C100.306 103.435 98.5175 102.225 96.97 100.74C95.3979 99.1998 94.2212 97.3027 93.54 95.21C93.44 94.89 93.29 94.6 93.19 94.28C92.69 92.61 92.49 90.88 92.34 89.15C92.24 87.92 92.51 86.7 92.6 85.48C92.68 84.34 93.06 83.26 93.38 82.18C93.6 81.44 93.88 80.69 94.28 79.99C94.75 79.21 95.25 78.45 95.73 77.69C96.1 77.11 96.57 76.59 96.98 76.04C98.11 74.55 99.81 73.82 101.22 72.73C101.69 72.36 102.25 71.93 102.92 71.78C103.37 71.68 103.65 71.23 104.05 70.99C105.02 70.39 106.11 70.22 107.19 70.03C108.752 69.7664 110.336 69.6526 111.92 69.69C113.48 69.71 114.9 70.26 116.39 70.56C117.82 70.84 119.07 71.52 120.33 72.17C121.17 72.61 121.93 73.17 122.67 73.77C122.95 74 123.27 74.15 123.55 74.4C124.45 75.21 125.27 76.1 126.07 77C127.33 78.3507 128.427 79.8442 129.34 81.45ZM120.67 99.14C122.87 97.85 124.68 96.51 126 94.61C126.6 93.75 127.2 92.88 127.6 91.91C128.05 90.83 128.3 89.71 128.28 88.49C128.25 87.21 128.04 85.99 127.74 84.78C127.47 83.7 127.02 82.69 126.62 81.67C126.116 80.2549 125.323 78.9606 124.29 77.87C123.309 76.9151 122.278 76.0138 121.2 75.17C120.51 74.61 119.73 74.17 118.96 73.73C118.24 73.33 117.42 73.18 116.71 72.8C115.651 72.3055 114.507 72.0203 113.34 71.96C112.16 71.83 110.96 72.06 109.76 72.1C108.47 72.15 107.3 72.7 106.07 73C104.579 73.467 103.196 74.225 102 75.23C101.28 75.77 100.73 76.53 99.9 76.93C99.29 77.25 98.77 77.73 98.39 78.27C97.7049 79.3245 97.1855 80.4779 96.85 81.69C96.25 83.6491 95.8414 85.6619 95.63 87.7C95.5 88.74 95.53 89.78 95.66 90.84C95.79 91.9 96.16 92.83 96.62 93.73C97.1972 94.7971 97.8915 95.7966 98.69 96.71C99.5527 97.7481 100.56 98.6573 101.68 99.41C102.73 100.11 103.75 100.89 104.93 101.39C105.85 101.79 106.81 102.05 107.78 102.27C108.62 102.47 109.43 102.37 110.25 102.41C111.55 102.48 112.86 102.57 114.11 101.91C114.71 101.6 115.41 101.41 116.06 101.2C116.68 101 117.34 100.84 117.89 100.55C118.89 100.04 119.97 99.65 120.67 99.14Z" fill="#FFCB4A"/><path d="M120.67 99.14C119.97 99.65 118.89 100.04 117.89 100.56C117.34 100.84 116.68 101.01 116.06 101.2C115.4 101.4 114.71 101.6 114.11 101.92C112.86 102.57 111.55 102.48 110.25 102.42C109.43 102.38 108.61 102.46 107.78 102.27C106.8 102.05 105.85 101.79 104.93 101.4C103.75 100.89 102.73 100.12 101.68 99.42C100.56 98.6672 99.5528 97.758 98.69 96.72C97.8907 95.8 97.1964 94.7938 96.62 93.72C96.1283 92.8296 95.803 91.857 95.66 90.85C95.53 89.78 95.5 88.75 95.63 87.7C95.87 85.67 96.22 83.65 96.85 81.69C97.24 80.48 97.65 79.3 98.39 78.27C98.77 77.72 99.29 77.25 99.91 76.94C100.73 76.53 101.28 75.77 102.01 75.23C103.204 74.2299 104.584 73.4755 106.07 73.01C107.3 72.7 108.47 72.15 109.77 72.11C110.96 72.06 112.16 71.83 113.34 71.96C114.49 72.09 115.65 72.24 116.71 72.8C117.42 73.18 118.24 73.32 118.96 73.74C119.74 74.18 120.51 74.62 121.2 75.17C122.27 76.03 123.32 76.91 124.29 77.87C125.323 78.9606 126.116 80.2549 126.62 81.67C127.02 82.7 127.47 83.7 127.74 84.77C128.04 86 128.25 87.21 128.28 88.49C128.296 89.6683 128.065 90.837 127.6 91.92C127.2 92.88 126.6 93.76 126 94.62C124.68 96.52 122.88 97.86 120.67 99.14ZM103.69 75.17C103.63 75.24 103.58 75.33 103.5 75.39C102.78 75.95 102.1 76.58 101.33 77.05C100.194 77.8005 99.3043 78.868 98.77 80.12C98.25 81.16 97.92 82.28 97.55 83.38C97.11 84.7 97.05 86.1 96.76 87.45C96.61 88.15 96.54 88.92 96.61 89.65C96.77 91.34 97.28 92.94 98.31 94.35C98.73 94.92 99.08 95.58 99.58 96.07C100.15 96.64 100.78 97.17 101.36 97.74C101.92 98.28 102.6 98.67 103.22 99.12C103.62 99.42 104.16 99.64 104.61 99.91C105.54 100.47 106.51 100.86 107.57 101.06C109.14 101.36 110.72 101.47 112.3 101.26C113.01 101.16 113.72 101.02 114.4 100.79C115.04 100.56 115.7 100.34 116.33 100.09C117 99.81 117.69 99.54 118.3 99.19C119.3 98.59 120.3 98.03 121.32 97.47C121.898 97.1697 122.445 96.8112 122.95 96.4C124.182 95.3193 125.217 94.0337 126.01 92.6C127.101 90.7616 127.445 88.5744 126.97 86.49C126.72 85.35 126.37 84.24 126.06 83.12C125.664 81.921 125.083 80.7909 124.34 79.77C123.647 78.7654 122.788 77.8862 121.8 77.17C121 76.57 120.22 75.93 119.37 75.41C118.229 74.7066 117.024 74.1138 115.77 73.64C114.75 73.26 113.69 73.16 112.64 73.05C111.856 72.9669 111.064 73.0006 110.29 73.15C108.93 73.42 107.54 73.63 106.25 74.18C105.41 74.54 104.42 74.52 103.69 75.16V75.17Z" fill="#5272C4"/><path d="M103.69 75.17C104.42 74.52 105.41 74.54 106.25 74.18C107.55 73.64 108.93 73.42 110.29 73.15C111.064 73.0006 111.856 72.9669 112.64 73.05C113.69 73.16 114.74 73.26 115.77 73.65C117.04 74.12 118.23 74.71 119.37 75.41C120.22 75.93 121 76.57 121.8 77.17C122.8 77.92 123.69 78.79 124.34 79.77C125.083 80.7909 125.664 81.921 126.06 83.12C126.37 84.24 126.72 85.35 126.96 86.49C127.45 88.66 127.1 90.69 126.01 92.61C125.216 94.0401 124.181 95.3223 122.95 96.4C122.46 96.82 121.89 97.16 121.32 97.48C120.31 98.04 119.29 98.59 118.3 99.18C117.69 99.55 117 99.81 116.33 100.08C115.69 100.34 115.04 100.56 114.39 100.79C113.72 101.02 113.01 101.16 112.3 101.26C110.72 101.48 109.14 101.36 107.57 101.06C106.522 100.858 105.519 100.469 104.61 99.91C104.16 99.64 103.63 99.42 103.22 99.12C102.6 98.67 101.92 98.28 101.36 97.74C100.78 97.18 100.16 96.64 99.58 96.08C99.08 95.58 98.74 94.92 98.31 94.34C97.3246 92.958 96.7367 91.3325 96.61 89.64C96.54 88.93 96.61 88.15 96.76 87.44C97.06 86.1 97.11 84.71 97.56 83.38C97.92 82.28 98.26 81.16 98.76 80.12C99.2965 78.8664 100.19 77.7986 101.33 77.05C102.11 76.58 102.78 75.95 103.5 75.39C103.58 75.33 103.63 75.24 103.69 75.17ZM112.54 75.8C112.44 75.5 112.14 75.24 111.9 74.97C111.56 74.59 110.68 74.38 110.4 74.62C110.05 74.92 109.65 75.11 109.26 75.34C109.11 75.4292 108.999 75.5722 108.95 75.74C108.45 77.16 108.62 78.63 108.8 80.05C108.94 81.21 109.18 82.35 109.17 83.52C109.159 86.7972 109.501 90.066 110.19 93.27C110.44 94.53 110.85 95.69 111.25 96.88C111.47 97.52 111.9 98.08 111.9 98.8C111.9 99.05 112.06 99.39 112.39 99.48C113.47 99.8 114.19 99.26 114.48 98.43C114.76 97.61 114.98 96.75 115.13 95.89C115.39 94.29 115.31 92.69 115.07 91.09C114.93 90.24 114.83 89.37 114.72 88.52C114.54 87.18 114.56 85.81 114.37 84.46C114.24 83.6 114.21 82.72 114.09 81.86C113.91 80.52 113.57 79.2 113.26 77.88C113.1 77.18 112.95 76.48 112.54 75.8ZM105.48 90.54C105.78 90.09 106.47 89.95 106.58 89.25C106.67 88.78 106.48 88.33 106.52 87.87C106.65 86.65 106.37 85.44 106.35 84.22C106.32 82.81 106.33 81.39 106.41 79.99C106.46 79.11 106.31 78.29 106.14 77.47C106.08 77.19 105.82 77.05 105.54 77.09C104.99 77.19 104.47 77.44 104.18 77.93C103.92 78.4 103.78 78.99 103.76 79.48C103.72 80.41 103.64 81.34 103.64 82.28C103.64 83.55 103.79 84.82 103.64 86.1C103.517 87.3611 103.684 88.6338 104.13 89.82C104.33 90.41 105.04 90.81 105.48 90.54ZM119.14 93.64C119.45 93.53 119.62 93.27 119.64 92.9C119.73 90.95 119.8 89 119.64 87.06C119.59 86.57 119.12 86.36 118.67 86.24C118.32 86.14 118.04 86.31 117.9 86.62C117.554 87.2762 117.375 88.0079 117.38 88.75C117.42 89.48 117.43 90.23 117.48 90.96C117.52 91.68 117.54 92.44 117.79 93.14C118.03 93.83 118.49 94 119.14 93.64Z" fill="#64CEFF"/><path d="M112.54 75.8C112.94 76.48 113.1 77.19 113.26 77.88C113.56 79.2 113.91 80.52 114.09 81.86C114.21 82.72 114.25 83.6 114.37 84.46C114.56 85.81 114.54 87.18 114.72 88.52C114.82 89.37 114.93 90.24 115.06 91.1C115.31 92.69 115.39 94.3 115.13 95.9C114.99 96.75 114.76 97.6 114.48 98.43C114.2 99.27 113.47 99.8 112.38 99.48C112.06 99.39 111.91 99.05 111.9 98.8C111.9 98.08 111.47 97.52 111.25 96.89C110.85 95.69 110.44 94.53 110.19 93.28C109.501 90.0725 109.16 86.8004 109.17 83.52C109.17 82.36 108.94 81.21 108.8 80.06C108.62 78.63 108.46 77.16 108.95 75.74C108.999 75.5722 109.11 75.4292 109.26 75.34C109.65 75.11 110.05 74.91 110.4 74.62C110.68 74.38 111.56 74.6 111.9 74.97C112.14 75.25 112.43 75.49 112.54 75.8ZM105.48 90.54C105.04 90.81 104.33 90.41 104.13 89.82C103.681 88.6346 103.51 87.3619 103.63 86.1C103.79 84.82 103.64 83.55 103.64 82.27C103.64 81.34 103.72 80.41 103.76 79.48C103.78 78.99 103.91 78.4 104.18 77.93C104.47 77.43 104.98 77.19 105.55 77.09C105.81 77.05 106.08 77.19 106.14 77.47C106.31 78.29 106.46 79.11 106.41 79.99C106.32 81.39 106.31 82.81 106.34 84.22C106.37 85.44 106.64 86.65 106.52 87.87C106.47 88.33 106.67 88.77 106.58 89.25C106.46 89.95 105.78 90.09 105.48 90.55V90.54ZM119.14 93.64C118.49 94 118.03 93.83 117.79 93.14C117.54 92.44 117.52 91.68 117.48 90.96C117.43 90.23 117.42 89.48 117.38 88.75C117.35 87.97 117.59 87.29 117.9 86.62C118.04 86.31 118.32 86.14 118.67 86.24C119.11 86.35 119.59 86.57 119.63 87.06C119.8 89 119.73 90.95 119.63 92.89C119.63 93.26 119.45 93.53 119.14 93.64Z" fill="#C1EBFF"/><path d="M209.588 54.2255C209.548 53.5255 209.408 52.8355 209.428 52.1255C209.458 51.3355 209.278 50.5955 209.178 49.8255C209.148 49.5555 209.168 49.2655 209.078 49.0055C209.028 48.8355 208.928 48.7355 208.798 48.7755C208.668 48.8055 208.588 48.9155 208.598 49.1355C208.598 49.2355 208.578 49.3355 208.548 49.4355C208.418 49.8255 208.338 50.2455 208.318 50.6855L208.148 54.7855C208.108 56.0055 207.888 57.1455 207.648 58.3055C207.432 59.317 206.936 59.991 206.445 60.6589L206.418 60.6955C205.978 61.2855 205.368 61.5355 204.778 61.7755C204.388 61.9255 203.978 61.7555 203.578 61.9755C203.228 62.1755 202.858 62.2455 202.498 62.3755C202.368 62.4255 202.248 62.5155 202.248 62.7355C202.248 62.9455 202.368 62.9955 202.488 63.0755C202.798 63.2755 203.148 63.2855 203.468 63.4455C203.638 63.5255 203.788 63.6555 203.948 63.7155C204.691 64.0083 205.35 64.4787 205.868 65.0855C206.478 65.7094 206.961 66.4466 207.288 67.2555C207.558 67.9455 207.808 68.6455 207.988 69.3855C208.156 70.0576 208.26 70.7439 208.298 71.4355C208.338 72.5255 208.628 73.5355 208.768 74.5955C208.788 74.7955 208.848 75.0155 209.038 75.0155C209.198 75.0055 209.288 74.8555 209.318 74.6255C209.358 74.2555 209.398 73.8855 209.458 73.5255C209.558 72.9055 209.498 72.2555 209.598 71.6255C209.658 71.1755 209.748 70.7255 209.758 70.2655C209.804 68.8693 210.218 67.51 210.958 66.3255C211.158 66.0055 211.398 65.6955 211.658 65.5055C212.158 65.1455 212.608 64.6755 213.118 64.3655C213.617 64.0683 214.156 63.8428 214.718 63.6955C215.054 63.6063 215.384 63.4994 215.708 63.3755C215.858 63.3155 215.998 63.1655 215.998 62.9155C215.998 62.6655 215.838 62.6055 215.718 62.4855C215.488 62.2655 215.208 62.3355 214.968 62.2255C214.588 62.0555 214.208 61.8555 213.808 61.9055C213.528 61.9455 213.318 61.8155 213.088 61.6455C212.918 61.5155 212.748 61.3855 212.568 61.2855C212.158 61.0555 211.778 60.7555 211.428 60.3555C210.718 59.5455 210.408 58.3455 210.048 57.2255C209.748 56.2855 209.638 55.2555 209.588 54.2255Z" fill="#32825A"/><path d="M26.34 37.79C26.28 36.82 26.07 35.88 26.1 34.9H26.09C26.14 33.8 25.86 32.77 25.72 31.72C25.66 31.34 25.7 30.94 25.56 30.59C25.47 30.35 25.32 30.21 25.12 30.26C24.93 30.3 24.79 30.46 24.81 30.76C24.8163 30.9001 24.7924 31.0399 24.74 31.17C24.53 31.71 24.42 32.3 24.39 32.9C24.29 34.79 24.2 36.67 24.12 38.56C24.05 40.24 23.72 41.82 23.35 43.42C23.01 44.85 22.21 45.79 21.45 46.72C20.77 47.54 19.82 47.89 18.92 48.2C18.31 48.42 17.67 48.2 17.05 48.5C16.52 48.77 15.94 48.86 15.38 49.05C15.18 49.11 15 49.23 15 49.55C15.01 49.83 15.19 49.91 15.37 50.01C15.85 50.29 16.39 50.3 16.89 50.52C17.14 50.64 17.37 50.81 17.63 50.88C18.7517 51.2732 19.7655 51.9239 20.59 52.78C21.5191 53.6205 22.2676 54.6412 22.79 55.78C23.2 56.73 23.6 57.7 23.87 58.73C24.1 59.65 24.3 60.58 24.35 61.56C24.42 63.06 24.87 64.45 25.07 65.92C25.11 66.2 25.21 66.5 25.49 66.5C25.75 66.49 25.88 66.28 25.93 65.95L25.93 65.9499C25.99 65.45 26.05 64.95 26.14 64.45C26.29 63.59 26.21 62.69 26.35 61.83C26.45 61.2 26.59 60.58 26.59 59.95C26.63 57.78 27.47 56.08 28.47 54.5C28.76 54.05 29.15 53.63 29.55 53.36C30.31 52.86 31.01 52.22 31.81 51.79C32.61 51.37 33.43 51.07 34.28 50.87C34.8 50.75 35.3 50.6 35.8 50.42C36.04 50.34 36.25 50.14 36.25 49.79C36.25 49.45 36.01 49.36 35.82 49.2C35.46 48.9 35.04 48.99 34.66 48.84C34.07 48.6 33.47 48.33 32.86 48.39C32.44 48.43 32.1 48.27 31.74 48.03C31.49 47.86 31.22 47.67 30.94 47.54C30.31 47.23 29.72 46.8 29.19 46.26C28.09 45.14 27.61 43.48 27.06 41.92C26.6 40.63 26.42 39.22 26.34 37.79Z" fill="#32825A"/><path d="M64.7325 198.22C64.6825 197.49 64.5225 196.77 64.5325 196.03V196.02C64.5725 195.19 64.3525 194.41 64.2525 193.61C64.2125 193.33 64.2325 193.03 64.1325 192.76C64.0625 192.57 63.9425 192.47 63.7925 192.51C63.6525 192.54 63.5425 192.66 63.5525 192.88C63.5625 193 63.5425 193.1 63.5025 193.2C63.3325 193.61 63.2525 194.05 63.2325 194.51C63.1625 195.94 63.0825 197.37 63.0325 198.81C62.9725 200.08 62.7225 201.29 62.4325 202.49C62.191 203.533 61.604 204.24 61.0415 204.918L60.9825 204.99C60.4625 205.62 59.7425 205.88 59.0425 206.12C58.5825 206.29 58.0925 206.11 57.6225 206.35C57.2125 206.55 56.7725 206.62 56.3525 206.76C56.1925 206.81 56.0525 206.9 56.0525 207.14C56.0625 207.35 56.1925 207.41 56.3325 207.49C56.7025 207.7 57.1125 207.71 57.5025 207.88C57.6925 207.96 57.8625 208.1 58.0625 208.16C58.9213 208.456 59.6988 208.949 60.3325 209.6C61.0405 210.235 61.6121 211.007 62.0125 211.87C62.3325 212.59 62.6325 213.32 62.8325 214.11C63.0125 214.8 63.1625 215.51 63.2025 216.26C63.2525 217.39 63.5925 218.45 63.7525 219.56C63.7825 219.77 63.8625 220 64.0725 220C64.2725 219.99 64.3725 219.83 64.4125 219.58C64.4625 219.2 64.5025 218.82 64.5725 218.45C64.6825 217.79 64.6325 217.11 64.7325 216.45C64.8125 215.98 64.9125 215.5 64.9225 215.03C64.988 213.543 65.4849 212.108 66.3525 210.9C66.5725 210.55 66.8725 210.24 67.1725 210.04C67.7625 209.65 68.3025 209.17 68.9025 208.84C69.5225 208.52 70.1425 208.3 70.7925 208.14C71.1825 208.05 71.5725 207.94 71.9625 207.81C72.0643 207.775 72.1523 207.709 72.2136 207.621C72.2748 207.533 72.306 207.427 72.3025 207.32C72.3025 207.06 72.1225 207 71.9725 206.88C71.6925 206.65 71.3825 206.72 71.0825 206.6C70.6325 206.42 70.1825 206.22 69.7125 206.26C69.3825 206.29 69.1325 206.17 68.8625 205.99C68.6625 205.86 68.4625 205.71 68.2425 205.61C67.7625 205.38 67.3125 205.05 66.9025 204.65C66.0725 203.79 65.7025 202.54 65.2725 201.35C64.9225 200.38 64.7825 199.3 64.7325 198.22Z" fill="#32825A"/></svg>