<?xml version="1.0" encoding="UTF-8"?>
<svg width="81px" height="61px" viewBox="0 0 81 61" version="1.1" xmlns="http://www.w3.org/2000/svg" xmlns:xlink="http://www.w3.org/1999/xlink">
    <!-- Generator: Sketch 56.3 (81716) - https://sketch.com -->
    <title>illustration/first_step/💚_05_mw</title>
    <desc>Created with Sketch.</desc>
    <g id="Page-1" stroke="none" stroke-width="1" fill="none" fill-rule="evenodd">
        <g id="icons" transform="translate(-684.000000, -630.000000)">
            <g id="illustration/first_step/💚_05_mw" transform="translate(680.000000, 628.000000)">
                <g id="05" transform="translate(-4.000000, -1.000000)">
                    <g id="icon/my_profile/💚_icon_male" transform="translate(0.000000, 16.000000)" fill="#617DC6">
                        <path d="M42.6734571,38.6415242 C44.8395645,39.913068 45.7873908,41.5103393 45.5169361,43.4333381 C44.72408,45.9777794 38.5493155,47.25 26.9926425,47.25 C15.4359694,47.25 9.2661447,45.9777794 8.48316821,43.4333381 C8.20900866,41.5103393 9.15498259,39.9118616 11.32109,38.637905 C12.2409118,38.0999954 18.5355841,33.8388253 18.5638576,33.7933529 C18.7520656,33.4906577 19.1225075,33.3590647 19.3111498,32.1369076 L19.4174073,31.4484969 L20.4855668,31.105502 L20.8238518,29.2844367 C20.3044481,28.5333918 19.9373805,27.9155136 19.7183415,27.414169 C19.5117358,26.9412822 19.2942891,26.3037249 19.0609093,25.4929154 C18.3545295,24.9828801 17.9131306,24.1011701 17.6713494,22.9158455 C17.3570268,21.3748891 17.2747823,20.7739932 17.2747823,20.1871232 C17.2747823,19.8658669 17.3545358,19.5652967 17.5019234,19.2920585 C17.0645984,18.0346444 16.8437542,16.8048551 16.8437542,15.6051674 L16.8437542,10.2561997 L18.3996795,10.8128637 C18.6807825,10.9134341 19.1507941,10.8129779 19.8428392,10.3909083 L19.8925952,10.3594885 C20.0709955,10.2431477 20.2769013,10.0731117 20.5813494,9.79379056 C20.4056564,9.95498312 21.282394,9.14002254 21.5345064,8.9193978 C23.1609495,7.49609001 24.7708343,6.75 27.0000522,6.75 C29.7478626,6.75 32.3503652,7.78040292 34.6524089,9.71217182 C36.5378087,10.9035654 37.5405758,12.4975245 37.5405758,14.4119372 C37.5405758,15.8745714 37.3125177,17.4813871 36.8600146,19.2345912 C37.3125916,19.9757642 37.3757797,20.9179841 37.1039732,21.9914219 C36.9961805,22.4171247 36.72957,23.5894666 36.671337,23.7965801 C36.5388039,24.2679511 36.3801057,24.5964812 36.0833918,24.8883122 C35.9278851,25.0412599 35.7484646,25.1985062 35.544567,25.3612217 C35.4100299,26.0848866 35.165458,26.7912543 34.8128252,27.4775621 C34.4800713,28.125181 34.1044167,28.7460834 33.68604,29.3399448 L33.8511153,31.0863954 L35.1704322,31.4403341 L35.1812637,32.2914777 C35.1911685,33.0697987 35.1037919,33.5667031 35.4402417,33.7933529 C35.9172247,34.1146731 36.407238,34.4743052 36.9642823,34.8812755 C39.4919606,36.4901868 41.8148338,38.138946 42.6734571,38.6415242 Z" id="Path"></path>
                    </g>
                    <g id="icon/my_profile/💚_icon_female" opacity="0.649999976" transform="translate(43.000000, 16.000000)" fill="#EF5F55">
                        <path d="M42.6794099,38.6762067 C44.8464374,39.9426276 45.7946664,41.5334637 45.5240968,43.448715 C44.7309039,45.982905 38.5535165,47.25 26.9919345,47.25 C15.4303525,47.25 9.25790698,45.982905 8.4745979,43.448715 C8.2003219,41.5334637 9.81178711,39.9450307 11.9788146,38.6762067 C13.1772019,37.9785124 19.4991907,36.1406664 20.6045433,35.4359349 C21.3414451,34.9661139 21.6173593,33.894598 21.4322858,32.221387 C20.839331,32.1354698 20.2313992,32.0020526 19.6085739,31.8217126 C18.4939685,31.4989768 17.1451805,30.9202553 15.5482223,30.0856195 L14.2732473,29.4192652 L15.2212871,28.3555794 C16.5854412,26.8250199 17.2382356,25.3998929 17.2382356,24.0722571 C17.2382356,23.5852766 17.2212289,23.3479241 17.0935508,21.8430704 C16.8767473,19.2877557 16.8641657,17.7348069 17.1868233,15.9752604 C17.3701479,14.9755371 17.6613232,14.0353469 18.0773035,13.1503557 C20.0095466,9.03954033 23.2224379,6.75 27.1648731,6.75 C29.4446165,6.75 31.0884455,7.10972916 32.096036,7.94543003 C33.1586189,8.01594561 34.1643257,8.34496661 35.0963642,8.9255454 C37.3077733,10.3030605 38.2158492,11.7387922 38.2158492,15.0356983 C38.2158492,16.266459 38.1127858,17.2693736 37.8351432,19.2403288 C37.4401058,22.0446569 37.3667027,23.1273736 37.5984543,24.4602294 C37.8903568,26.1390263 38.7199205,27.3287867 40.1320337,28.1161609 L41.8542585,29.0764489 L40.1471916,30.062003 C38.7362635,30.876585 37.448799,31.4625245 36.2779736,31.8175009 C35.4182213,32.0781647 34.3812863,32.2385091 33.1619874,32.3036904 C33.2420264,32.4453106 32.7739094,34.7888562 33.6852658,35.4359349 C38.9653913,37.1789024 41.9634393,38.258993 42.6794099,38.6762067 Z" id="Path"></path>
                    </g>
                    <g id="icon/_icon_💚_logo" transform="translate(36.000000, 0.000000)" fill="#0CAEB1">
                        <path d="M18.7078811,19.6381054 L18.7112651,19.6408609 L13.999581,24.352545 L9.28789694,19.6408609 L9.28920171,19.6397985 L4.57665509,14.9281887 C1.97447934,12.3254734 1.97447934,8.10650574 4.57665509,5.50431713 C7.17896415,2.90243218 11.3976909,2.90243218 14,5.50431713 C15.2496368,4.25454685 16.9445881,3.55242199 18.7119358,3.55242199 C20.4792834,3.55242199 22.1742348,4.25454685 23.4238715,5.50431713 C26.0255207,8.10679034 26.0254329,12.3255612 23.4233449,14.927662 L18.7121525,19.6384102 L18.7078811,19.6381054 Z" id="Shape"></path>
                    </g>
                </g>
            </g>
        </g>
    </g>
</svg>