<?xml version="1.0" encoding="UTF-8"?>
<svg width="84px" height="59px" viewBox="0 0 84 59" version="1.1" xmlns="http://www.w3.org/2000/svg" xmlns:xlink="http://www.w3.org/1999/xlink">
    <!-- Generator: Sketch 56.3 (81716) - https://sketch.com -->
    <title>illustration/first_step/💚_03_w</title>
    <desc>Created with Sketch.</desc>
    <g id="Page-1" stroke="none" stroke-width="1" fill="none" fill-rule="evenodd">
        <g id="icons" transform="translate(-681.000000, -369.000000)">
            <g id="illustration/first_step/💚_03_w" transform="translate(680.000000, 364.000000)">
                <g id="03" transform="translate(-3.000000, -1.000000)">
                    <g id="search_male" transform="translate(24.460870, 3.000000)"></g>
                    <g id="icon/my_profile/💚_icon_female" transform="translate(19.000000, 0.000000)" fill="#617DC6">
                        <path d="M42.6794099,38.6762067 C44.8464374,39.9426276 45.7946664,41.5334637 45.5240968,43.448715 C44.7309039,45.982905 38.5535165,47.25 26.9919345,47.25 C15.4303525,47.25 9.25790698,45.982905 8.4745979,43.448715 C8.2003219,41.5334637 9.81178711,39.9450307 11.9788146,38.6762067 C13.1772019,37.9785124 19.4991907,36.1406664 20.6045433,35.4359349 C21.3414451,34.9661139 21.6173593,33.894598 21.4322858,32.221387 C20.839331,32.1354698 20.2313992,32.0020526 19.6085739,31.8217126 C18.4939685,31.4989768 17.1451805,30.9202553 15.5482223,30.0856195 L14.2732473,29.4192652 L15.2212871,28.3555794 C16.5854412,26.8250199 17.2382356,25.3998929 17.2382356,24.0722571 C17.2382356,23.5852766 17.2212289,23.3479241 17.0935508,21.8430704 C16.8767473,19.2877557 16.8641657,17.7348069 17.1868233,15.9752604 C17.3701479,14.9755371 17.6613232,14.0353469 18.0773035,13.1503557 C20.0095466,9.03954033 23.2224379,6.75 27.1648731,6.75 C29.4446165,6.75 31.0884455,7.10972916 32.096036,7.94543003 C33.1586189,8.01594561 34.1643257,8.34496661 35.0963642,8.9255454 C37.3077733,10.3030605 38.2158492,11.7387922 38.2158492,15.0356983 C38.2158492,16.266459 38.1127858,17.2693736 37.8351432,19.2403288 C37.4401058,22.0446569 37.3667027,23.1273736 37.5984543,24.4602294 C37.8903568,26.1390263 38.7199205,27.3287867 40.1320337,28.1161609 L41.8542585,29.0764489 L40.1471916,30.062003 C38.7362635,30.876585 37.448799,31.4625245 36.2779736,31.8175009 C35.4182213,32.0781647 34.3812863,32.2385091 33.1619874,32.3036904 C33.2420264,32.4453106 32.7739094,34.7888562 33.6852658,35.4359349 C38.9653913,37.1789024 41.9634393,38.258993 42.6794099,38.6762067 Z" id="Path"></path>
                    </g>
                    <g id="icon/my_profile/💚_icon_female" opacity="0.75" transform="translate(66.000000, 21.000000)" fill="#EF5F55">
                        <path d="M20.5493455,18.6218773 C21.5927291,19.2316355 22.0492838,19.9975936 21.9190096,20.9197517 C21.5371019,22.1399172 18.5628042,22.75 12.9961166,22.75 C7.42942898,22.75 4.45751077,22.1399172 4.08036195,20.9197517 C3.94830314,19.9975936 4.72419379,19.2327925 5.76757741,18.6218773 C6.34457871,18.2859504 9.38849921,17.4010616 9.92070605,17.0617464 C10.2755106,16.8355363 10.4083582,16.3196212 10.3192487,15.5140011 C10.033752,15.4726336 9.74104405,15.4083957 9.44116522,15.3215653 C8.90450333,15.166174 8.25508691,14.8875303 7.4861811,14.4856686 L6.87230425,14.1648314 L7.32876786,13.6526864 C7.98558281,12.9157503 8.29989123,12.2295781 8.29989123,11.590346 C8.29989123,11.3558739 8.2917028,11.2415931 8.23022819,10.5170339 C8.1258413,9.28669721 8.11978351,8.53898112 8.27513713,7.69179203 C8.36340455,7.2104438 8.50360008,6.75775961 8.70388688,6.33165275 C9.63422614,4.35237127 11.1811738,3.25 13.0793833,3.25 C14.1770376,3.25 14.9685108,3.42320293 15.453647,3.82557742 C15.9652609,3.85952937 16.4494901,4.01794688 16.8982494,4.29748482 C17.963002,4.96073286 18.4002237,5.65201104 18.4002237,7.23941028 C18.4002237,7.83199879 18.3506006,8.31488356 18.2169208,9.26386199 C18.0267176,10.6140941 17.9913754,11.1354021 18.1029595,11.7771475 C18.2435051,12.5854571 18.6429247,13.1583047 19.3228311,13.5374108 L20.1520504,13.9997717 L19.3301293,14.4742977 C18.6507935,14.8665039 18.0309032,15.1486229 17.4671725,15.3195375 C17.0532177,15.4450423 16.5539527,15.5222451 15.9668828,15.5536287 C16.0054201,15.6218162 15.7800304,16.75019 16.2188317,17.0617464 C18.7611143,17.900953 20.2046189,18.4209966 20.5493455,18.6218773 Z" id="Path"></path>
                    </g>
                    <g id="icon/my_profile/💚_icon_female" opacity="0.349999994" transform="translate(0.000000, 21.000000)" fill="#EF5F55">
                        <path d="M20.5493455,18.6218773 C21.5927291,19.2316355 22.0492838,19.9975936 21.9190096,20.9197517 C21.5371019,22.1399172 18.5628042,22.75 12.9961166,22.75 C7.42942898,22.75 4.45751077,22.1399172 4.08036195,20.9197517 C3.94830314,19.9975936 4.72419379,19.2327925 5.76757741,18.6218773 C6.34457871,18.2859504 9.38849921,17.4010616 9.92070605,17.0617464 C10.2755106,16.8355363 10.4083582,16.3196212 10.3192487,15.5140011 C10.033752,15.4726336 9.74104405,15.4083957 9.44116522,15.3215653 C8.90450333,15.166174 8.25508691,14.8875303 7.4861811,14.4856686 L6.87230425,14.1648314 L7.32876786,13.6526864 C7.98558281,12.9157503 8.29989123,12.2295781 8.29989123,11.590346 C8.29989123,11.3558739 8.2917028,11.2415931 8.23022819,10.5170339 C8.1258413,9.28669721 8.11978351,8.53898112 8.27513713,7.69179203 C8.36340455,7.2104438 8.50360008,6.75775961 8.70388688,6.33165275 C9.63422614,4.35237127 11.1811738,3.25 13.0793833,3.25 C14.1770376,3.25 14.9685108,3.42320293 15.453647,3.82557742 C15.9652609,3.85952937 16.4494901,4.01794688 16.8982494,4.29748482 C17.963002,4.96073286 18.4002237,5.65201104 18.4002237,7.23941028 C18.4002237,7.83199879 18.3506006,8.31488356 18.2169208,9.26386199 C18.0267176,10.6140941 17.9913754,11.1354021 18.1029595,11.7771475 C18.2435051,12.5854571 18.6429247,13.1583047 19.3228311,13.5374108 L20.1520504,13.9997717 L19.3301293,14.4742977 C18.6507935,14.8665039 18.0309032,15.1486229 17.4671725,15.3195375 C17.0532177,15.4450423 16.5539527,15.5222451 15.9668828,15.5536287 C16.0054201,15.6218162 15.7800304,16.75019 16.2188317,17.0617464 C18.7611143,17.900953 20.2046189,18.4209966 20.5493455,18.6218773 Z" id="Path"></path>
                    </g>
                    <circle id="Oval" fill="#FFFFFF" cx="62.9130435" cy="46" r="10"></circle>
                    <path d="M71.2469365,57.3143813 C68.9338589,59.0032454 66.0833317,60 63,60 C55.2680135,60 49,53.7319865 49,46 C49,38.2680135 55.2680135,32 63,32 C70.7319865,32 77,38.2680135 77,46 C77,49.0776192 76.0069354,51.9232956 74.3237611,54.2340745 L81.3785411,61.2357015 C81.7341874,61.5936536 81.9372344,61.9705708 81.987682,62.3664531 C82.0381296,62.7623354 81.9336235,63.1587079 81.6741638,63.5555706 L80.68075,64.5895324 C80.2601521,64.9015639 79.8411092,65.035694 79.4236214,64.9919228 C79.0061335,64.9481517 78.5971073,64.7272033 78.1965427,64.3290777 L71.2469365,57.3143813 Z M63,56 C68.5228475,56 73,51.5228475 73,46 C73,40.4771525 68.5228475,36 63,36 C57.4771525,36 53,40.4771525 53,46 C53,51.5228475 57.4771525,56 63,56 Z" id="icon_mask" fill="#0CAEB1"></path>
                </g>
            </g>
        </g>
    </g>
</svg>