<?xml version="1.0" encoding="UTF-8"?>
<svg width="83px" height="56px" viewBox="0 0 83 56" version="1.1" xmlns="http://www.w3.org/2000/svg" xmlns:xlink="http://www.w3.org/1999/xlink">
    <!-- Generator: Sketch 56.3 (81716) - https://sketch.com -->
    <title>illustration/first_step/💚_02_m</title>
    <desc>Created with Sketch.</desc>
    <g id="Page-1" stroke="none" stroke-width="1" fill="none" fill-rule="evenodd">
        <g id="icons" transform="translate(-683.000000, -192.000000)">
            <g id="illustration/first_step/💚_02_m" transform="translate(680.000000, 188.000000)">
                <g id="02" transform="translate(0.000000, -1.000000)">
                    <g id="icon/my_profile/💚_icon_male" transform="translate(13.000000, 13.000000)" fill="#617DC6">
                        <path d="M42.6734571,38.6415242 C44.8395645,39.913068 45.7873908,41.5103393 45.5169361,43.4333381 C44.72408,45.9777794 38.5493155,47.25 26.9926425,47.25 C15.4359694,47.25 9.2661447,45.9777794 8.48316821,43.4333381 C8.20900866,41.5103393 9.15498259,39.9118616 11.32109,38.637905 C12.2409118,38.0999954 18.5355841,33.8388253 18.5638576,33.7933529 C18.7520656,33.4906577 19.1225075,33.3590647 19.3111498,32.1369076 L19.4174073,31.4484969 L20.4855668,31.105502 L20.8238518,29.2844367 C20.3044481,28.5333918 19.9373805,27.9155136 19.7183415,27.414169 C19.5117358,26.9412822 19.2942891,26.3037249 19.0609093,25.4929154 C18.3545295,24.9828801 17.9131306,24.1011701 17.6713494,22.9158455 C17.3570268,21.3748891 17.2747823,20.7739932 17.2747823,20.1871232 C17.2747823,19.8658669 17.3545358,19.5652967 17.5019234,19.2920585 C17.0645984,18.0346444 16.8437542,16.8048551 16.8437542,15.6051674 L16.8437542,10.2561997 L18.3996795,10.8128637 C18.6807825,10.9134341 19.1507941,10.8129779 19.8428392,10.3909083 L19.8925952,10.3594885 C20.0709955,10.2431477 20.2769013,10.0731117 20.5813494,9.79379056 C20.4056564,9.95498312 21.282394,9.14002254 21.5345064,8.9193978 C23.1609495,7.49609001 24.7708343,6.75 27.0000522,6.75 C29.7478626,6.75 32.3503652,7.78040292 34.6524089,9.71217182 C36.5378087,10.9035654 37.5405758,12.4975245 37.5405758,14.4119372 C37.5405758,15.8745714 37.3125177,17.4813871 36.8600146,19.2345912 C37.3125916,19.9757642 37.3757797,20.9179841 37.1039732,21.9914219 C36.9961805,22.4171247 36.72957,23.5894666 36.671337,23.7965801 C36.5388039,24.2679511 36.3801057,24.5964812 36.0833918,24.8883122 C35.9278851,25.0412599 35.7484646,25.1985062 35.544567,25.3612217 C35.4100299,26.0848866 35.165458,26.7912543 34.8128252,27.4775621 C34.4800713,28.125181 34.1044167,28.7460834 33.68604,29.3399448 L33.8511153,31.0863954 L35.1704322,31.4403341 L35.1812637,32.2914777 C35.1911685,33.0697987 35.1037919,33.5667031 35.4402417,33.7933529 C35.9172247,34.1146731 36.407238,34.4743052 36.9642823,34.8812755 C39.4919606,36.4901868 41.8148338,38.138946 42.6734571,38.6415242 Z" id="Path"></path>
                    </g>
                    <g id="icon/speachbubble/💚_icon_message" transform="translate(52.000000, 0.000000)" fill="#0CAEB1">
                        <path d="M10.6875,26.94985 L9.5,26.94985 C6.82541186,26.94985 4.75,24.9096497 4.75,22.2804389 L4.75,10.6069111 C4.75,7.97770025 6.82541186,5.9375 9.5,5.9375 L28.5,5.9375 C31.1745881,5.9375 33.25,7.97770025 33.25,10.6069111 L33.25,22.2804389 C33.25,24.9096497 31.1745881,26.94985 28.5,26.94985 L19.4918786,26.94985 L10.6875,34.4375 L10.6875,26.94985 Z" id="icon_mask"></path>
                    </g>
                    <g id="icon/speachbubble/💚_icon_message" opacity="0.649999976" transform="translate(13.500000, 24.500000) scale(-1, 1) translate(-13.500000, -24.500000) translate(0.000000, 11.000000)" fill="#EF5F54">
                        <path d="M7.59375,19.1485776 L6.75,19.1485776 C4.84963474,19.1485776 3.375,17.6989617 3.375,15.8308382 L3.375,7.53648947 C3.375,5.66836597 4.84963474,4.21875 6.75,4.21875 L20.25,4.21875 C22.1503653,4.21875 23.625,5.66836597 23.625,7.53648947 L23.625,15.8308382 C23.625,17.6989617 22.1503653,19.1485776 20.25,19.1485776 L13.8494927,19.1485776 L7.59375,24.46875 L7.59375,19.1485776 Z" id="icon_mask"></path>
                    </g>
                </g>
            </g>
        </g>
    </g>
</svg>