<?xml version="1.0" encoding="UTF-8"?>
<svg width="82px" height="61px" viewBox="0 0 82 61" version="1.1" xmlns="http://www.w3.org/2000/svg" xmlns:xlink="http://www.w3.org/1999/xlink">
    <!-- Generator: Sketch 56.3 (81716) - https://sketch.com -->
    <title>illustration/first_step/💚_01</title>
    <desc>Created with Sketch.</desc>
    <defs>
        <path d="M37.63125,12.9210608 C37.125,13.4273108 36.95625,13.9335608 36.95625,14.6085608 C36.95625,15.1148108 37.125,15.7898108 37.63125,16.2960608 C38.1375,16.8023108 38.64375,16.9710608 39.31875,16.9710608 C39.825,16.9710608 40.5,16.8023108 41.00625,16.2960608 C41.5125,15.7898108 41.68125,15.1148108 41.68125,14.6085608 C41.68125,13.9335608 41.5125,13.4273108 41.00625,12.9210608 C40.5,12.4148108 39.99375,12.2460608 39.31875,12.2460608 C38.64375,12.2460608 38.1375,12.4148108 37.63125,12.9210608 L37.63125,12.9210608 Z M8.65335724,29.0096347 C8.85421685,28.5225494 12.9043744,20.6836576 14.4817471,19.5766397 C15.5333289,18.8386278 18.5207949,18.6753752 23.444145,19.0868817 C25.0736719,17.2911024 26.3772934,15.6585757 27.5179622,14.515807 C30.4511106,11.5772589 33.5472117,9.45497419 36.3174074,8.3122055 C38.9246505,7.1694368 41.5154912,6.75 44.7282705,6.75 C46.0582435,6.75 47.25,7.67519814 47.25,9.13210487 C47.25,12.2809033 46.7463795,14.8423123 45.6057107,17.6176077 C44.4650419,20.5561558 42.3466569,23.6579565 39.5764612,26.4332519 C38.2728397,27.7392733 36.6433128,29.2085473 35.0137859,30.5145687 C35.2503855,35.789446 35.0331152,38.8912467 34.3619752,39.8199709 C33.3552651,41.2130571 26.0844778,45.1945559 25.5240298,45.3578086 C24.9635817,45.5210612 24.0959558,45.7224073 23.444145,45.3578086 C22.7923343,44.9932099 22.4402972,44.5426359 22.1405235,44.227793 C21.8407498,43.9129501 21.8407498,43.2144569 21.9906366,42.7573054 C22.1405235,42.3001539 24.075455,37.7961912 24.075455,36.9496984 C24.075455,36.1032056 23.8971706,35.818375 23.2439004,35.0336019 C22.5906302,34.2488288 19.8302548,31.4856999 19.1045181,30.8417578 C18.3787814,30.1978156 17.9976001,30.0036146 17.0337142,30.0036146 C16.0698284,30.0036146 12.4147134,31.5500574 11.8723634,31.82059 C11.3300134,32.0911227 10.5843377,32.0356643 10.0820245,31.82059 C9.57971129,31.6055158 9.01684657,31.2852676 8.65335724,30.8086371 C8.2898679,30.3320066 8.45249763,29.4967201 8.65335724,29.0096347 Z M16.6583601,35.1625356 C15.1653757,35.8327428 13.8845734,36.9128812 12.8159531,38.4029507 C11.7473328,39.8930202 11.1969857,41.2379328 11.1649116,42.4376884 C12.3339175,42.4536983 13.6761693,41.9352807 15.1916672,40.8824355 C16.707165,39.8295903 17.9275858,38.6283242 18.8529293,37.2786371 L20.25,38.5477692 C19.8935078,40.6605975 18.4457933,42.7411914 15.9068563,44.789551 C13.3679194,46.8379105 10.3410871,47.6073033 6.82635952,47.0977292 C6.48711499,43.3399638 7.27824867,40.2599532 9.19976056,37.8576973 C11.1212724,35.4554415 13.2117898,34.0862091 15.4713126,33.75 L16.6583601,35.1625356 Z" id="path-1"></path>
    </defs>
    <g id="Page-1" stroke="none" stroke-width="1" fill="none" fill-rule="evenodd">
        <g id="icons" transform="translate(-686.000000, -100.000000)">
            <g id="illustration/first_step/💚_01" transform="translate(680.000000, 100.000000)">
                <g id="01" transform="translate(5.000000, 0.000000)">
                    <g id="opacity" opacity="0.649999976" transform="translate(1.000000, 0.000000)" fill="#EF5F54">
                        <path d="M10.5,8.8817842e-16 C10.351215,5.42653711 11.3299693,9.19916122 13.4362629,11.3178723 C15.5425565,13.4365834 18.0638022,14.4972927 21,14.5 C18.004716,14.5571506 15.4834703,15.6153641 13.4362629,17.6746407 C11.3890556,19.7339172 10.4103013,23.509037 10.5,29 C10.2500349,23.5002938 9.10579466,19.725174 7.06727922,17.6746407 C5.02876377,15.6241073 2.67300403,14.5658937 2.84217094e-13,14.5 C2.59853012,14.5040279 4.95428986,13.4433187 7.06727922,11.3178723 C9.18026858,9.19242598 10.3245088,5.41980187 10.5,8.8817842e-16 Z" id="Rectangle"></path>
                    </g>
                    <g id="icon/💚_icon_rocket" transform="translate(0.000000, 13.000000)">
                        <mask id="mask-2" fill="white">
                            <use xlink:href="#path-1"></use>
                        </mask>
                        <use id="icon_mask" fill="#617DC6" fill-rule="evenodd" xlink:href="#path-1"></use>
                    </g>
                    <path d="M68,6 C67.78745,13.6720007 69.1856705,19.0057107 72.1946613,22.0011298 C75.2036522,24.996549 78.8054317,26.4961724 83,26.5 C78.7210228,26.5807991 75.1192433,28.0768941 72.1946613,30.9882851 C69.2700794,33.8996761 67.8718589,39.2369144 68,47 C67.642907,39.2245533 66.0082781,33.887315 63.0961132,30.9882851 C60.1839482,28.0892552 56.8185772,26.5931601 53,26.5 C56.7121859,26.5056946 60.0775569,25.0060712 63.0961132,22.0011298 C66.1146694,18.9961885 67.7492983,13.6624785 68,6 Z" id="Rectangle" fill="#EF5F54"></path>
                </g>
            </g>
        </g>
    </g>
</svg>