<?xml version="1.0" encoding="UTF-8"?>
<svg width="67px" height="49px" viewBox="0 0 67 49" version="1.1" xmlns="http://www.w3.org/2000/svg" xmlns:xlink="http://www.w3.org/1999/xlink">
    <!-- Generator: Sketch 56.3 (81716) - https://sketch.com -->
    <title>illustration/first_step/💚_04</title>
    <desc>Created with Sketch.</desc>
    <g id="Page-1" stroke="none" stroke-width="1" fill="none" fill-rule="evenodd">
        <g id="icons" transform="translate(-692.000000, -548.000000)">
            <g id="illustration/first_step/💚_04" transform="translate(680.000000, 540.000000)">
                <g id="04" transform="translate(12.000000, 8.000000)">
                    <path d="M63.1173807,36.4570342 C63.3048936,37.1487444 62.9436556,37.4443948 62.3204511,37.1096963 L52.8179611,32.075273 C49.8729061,32.9929047 46.6190065,33.5116874 43.1941392,33.5116874 C30.0461785,33.5116874 19.3882784,26.0116518 19.3882784,16.7572383 C19.3882784,7.50003557 30.0461785,0 43.1941392,0 C56.3420998,0 67,7.50003557 67,16.7572383 C67,21.0832164 64.6505741,25.0075563 60.8341359,27.9807947 L63.1173807,36.4570342 L63.1173807,36.4570342 Z" id="Path" fill="#617DC6"></path>
                    <path d="M42.4192699,38.6102612 C26.6874923,38.6102612 14.3640367,29.4088416 14.3640367,17.6581351 C14.3640367,15.847974 14.6921842,14.1019635 15.2436926,12.4368385 C6.31752891,14.9303423 0,21.0525357 0,28.2234511 C0,32.6080014 2.37975882,36.5937027 6.2513479,39.6059892 L3.93501255,48.2021624 C3.74749969,48.9022401 4.11149525,49.1978904 4.74572993,48.8604028 L14.380582,43.7562507 C17.367,44.6878282 20.6622628,45.2121891 24.1395234,45.2121891 C31.9185496,45.2121891 38.8124048,42.6071191 43.2217146,38.5851588 C42.9514755,38.5935263 42.6867515,38.6102612 42.4192699,38.6102612 Z" id="Path" fill="#EF5F55" opacity="0.649999976"></path>
                </g>
            </g>
        </g>
    </g>
</svg>